<?xml version="1.0" encoding="UTF-8" standalone="no"?>
<!-- Creator: CorelDRAW -->

<svg
   xmlns:dc="http://purl.org/dc/elements/1.1/"
   xmlns:cc="http://creativecommons.org/ns#"
   xmlns:rdf="http://www.w3.org/1999/02/22-rdf-syntax-ns#"
   xmlns:svg="http://www.w3.org/2000/svg"
   xmlns="http://www.w3.org/2000/svg"
   xmlns:sodipodi="http://sodipodi.sourceforge.net/DTD/sodipodi-0.dtd"
   xmlns:inkscape="http://www.inkscape.org/namespaces/inkscape"
   xml:space="preserve"
   width="600"
   height="300"
   style="fill-rule:evenodd"
   viewBox="0 0 169.33334 84.666671"
   id="svg2"
   version="1.1"
   inkscape:version="0.48.1 "
   sodipodi:docname="герб_оша.svg"><metadata
   id="metadata19"><rdf:RDF><cc:Work
       rdf:about=""><dc:format>image/svg+xml</dc:format><dc:type
         rdf:resource="http://purl.org/dc/dcmitype/StillImage" /></cc:Work></rdf:RDF></metadata><sodipodi:namedview
   pagecolor="#ffffff"
   bordercolor="#666666"
   borderopacity="1"
   objecttolerance="10"
   gridtolerance="10"
   guidetolerance="10"
   inkscape:pageopacity="0"
   inkscape:pageshadow="2"
   inkscape:window-width="788"
   inkscape:window-height="480"
   id="namedview17"
   showgrid="false"
   inkscape:zoom="0.95955561"
   inkscape:cx="265.74802"
   inkscape:cy="132.87402"
   inkscape:window-x="0"
   inkscape:window-y="0"
   inkscape:window-maximized="0"
   inkscape:current-layer="svg2"
   fit-margin-top="0"
   fit-margin-left="0"
   fit-margin-right="0"
   fit-margin-bottom="0" />
 <defs
   id="defs4">
  <style
   type="text/css"
   id="style6">
   
    .fil1 {fill:#07ADEB}
    .fil0 {fill:white}
    .fil2 {fill:#990000;fill-rule:nonzero}
   
  </style>
 </defs>
 <g
   id="Слой_x0020_1"
   transform="scale(1.128889,1.128889)">
  <metadata
   id="CorelCorpID_0Corel-Layer" />
  <g
   id="_158551048">
   <rect
   id="_158146488"
   class="fil0"
   width="150"
   height="75"
   x="0"
   y="0"
   style="fill:#ffffff" />
   <polygon
   id="_158550616"
   class="fil1"
   points="72.7363,40.5579 20.8446,0 150,0 150,63.827 99.1311,27.2206 "
   style="fill:#07adeb" />
   <path
   id="_158541296"
   class="fil2"
   d="m 8.5723,46.2882 c 2.726,-5.3736 5.7561,-9.8421 9.2411,-13.7076 0.4018,0.2577 0.8305,0.4973 1.282,0.7162 l 0.0261,0.0134 C 15.5562,37.5554 12.5484,42.3303 10.108,47.53 L 8.5723,46.2882 z m 9.5036,-13.9969 c 4.261,-4.6595 9.1979,-8.4383 15.0797,-11.8726 l 0.011,0.0048 0.0019,0 0.1163,0.0582 0,3e-4 0.1305,0.0672 0,-2e-4 c 0.1518,0.0794 0.2991,0.1618 0.4428,0.2448 C 28.3146,24.0604 23.483,28.1847 19.3783,33.006 L 19.2627,32.95 C 18.8456,32.7477 18.4488,32.5276 18.0759,32.2913 z M 33.3284,20.3179 c 0.7189,-0.4175 1.4522,-0.8307 2.1995,-1.2391 l 0.6581,0.4156 c -0.7323,0.3863 -1.4536,0.7879 -2.1628,1.2024 -0.1678,-0.0986 -0.3449,-0.198 -0.5313,-0.2952 l -4e-4,-4e-4 -0.1305,-0.0673 -9e-4,-2e-4 -0.0317,-0.0158 z M 5.2838,43.6288 c 2.9476,-4.9277 6.4594,-9.1681 10.42,-12.8322 l 0.0302,0.0337 7e-4,0.0016 0.0994,0.1103 0.003,0.0022 0.0977,0.1045 -2e-4,2e-4 0.0015,0.0017 0.0055,0.006 c 0.1771,0.1861 0.3683,0.3694 0.5722,0.5485 l 0.0015,6e-4 0.12,0.1038 0.0022,0.0022 0.1005,0.0843 C 12.8346,35.7498 9.4489,40.2021 6.8656,44.908 L 5.2838,43.6288 z M 15.9869,30.5363 c 4.7184,-4.3101 10.0618,-7.8132 15.8378,-10.6907 0.2494,0.0924 0.4931,0.191 0.7311,0.2943 -5.5796,2.8208 -10.9168,6.7503 -15.545,11.382 l -0.0024,-0.002 -0.1235,-0.1036 -2e-4,2e-4 -0.1165,-0.1007 4e-4,-4e-4 C 16.57,31.1408 16.3887,30.9679 16.226,30.7973 l -0.0015,-0.0018 -9e-4,-9e-4 -0.003,-0.0032 -3e-4,2e-4 -4e-4,-5e-4 -0.0996,-0.1064 6e-4,-4e-4 -0.0994,-0.1104 -4e-4,2e-4 -0.0342,-0.0378 z M 32.0286,19.7445 c 0.8507,-0.4209 1.7112,-0.8288 2.5799,-1.2234 l 0.6315,0.3558 c -0.8345,0.3633 -1.6655,0.7526 -2.4912,1.1658 -0.2346,-0.1044 -0.4746,-0.2041 -0.7202,-0.2982 z M 2.375,41.2768 c 3.4183,-4.9084 7.4941,-9.0956 12.0156,-12.6318 0.035,0.0939 0.0731,0.1868 0.1132,0.2796 l 9e-4,0 c 0.0985,0.2278 0.2093,0.4496 0.3315,0.6629 0.0602,0.1055 0.1242,0.2106 0.1916,0.3151 -4.3245,3.7461 -8.1464,8.0483 -11.0867,12.6405 L 2.375,41.2768 z M 14.711,28.3965 c 4.8009,-3.7052 10.093,-6.6837 15.6282,-9.0168 0.3076,0.0799 0.6094,0.1681 0.9048,0.2643 -5.5704,2.3791 -11.0546,5.8391 -15.921,10.0046 -0.053,-0.0835 -0.1032,-0.1682 -0.1518,-0.253 -0.1197,-0.2091 -0.2246,-0.4173 -0.3133,-0.6232 l 6e-4,-2e-4 C 14.8049,28.6478 14.7552,28.5226 14.711,28.3965 z m 15.8791,-9.122 c 1.0743,-0.4484 2.1582,-0.8734 3.2487,-1.2739 l 0.614,0.3965 c -0.9926,0.3469 -1.9861,0.731 -2.9767,1.1485 -0.2891,-0.0978 -0.5847,-0.1885 -0.886,-0.2711 z"
   inkscape:connector-curvature="0"
   style="fill:#990000;fill-rule:nonzero" />
   <path
   id="_158540816"
   class="fil2"
   d="m 43.186,46.2882 c -2.6624,-5.2485 -5.6151,-9.6343 -8.9984,-13.4376 -0.1999,0.1189 -0.4053,0.2321 -0.6138,0.3398 l -0.0041,0.0022 -0.0016,7e-4 c -0.2384,0.1228 -0.4834,0.2406 -0.7348,0.3508 3.4799,4.1863 6.4215,8.8817 8.8171,13.9859 L 43.186,46.2882 z M 33.9246,32.5578 C 29.6404,27.8109 24.6698,23.9754 18.7348,20.4962 l -0.0515,0.0269 -0.0186,0.0099 -0.0026,0 c -0.2091,0.1112 -0.4126,0.2281 -0.6112,0.3497 5.5678,3.304 10.4145,7.4765 14.5236,12.353 0.282,-0.1204 0.5542,-0.2496 0.8156,-0.384 l 0,-3e-4 0.0042,-0.0021 0.0015,-7e-4 c 0.1778,-0.092 0.3547,-0.1888 0.5288,-0.2908 z m -15.36,-12.161 c -0.762,-0.4445 -1.54,-0.884 -2.3342,-1.318 l -0.658,0.4156 c 0.7854,0.4143 1.5578,0.8457 2.3165,1.2926 0.2187,-0.1362 0.4441,-0.2665 0.6757,-0.3902 z m 27.91,23.232 c -2.8635,-4.7872 -6.2593,-8.9259 -10.0819,-12.5177 -0.1682,0.1793 -0.348,0.3545 -0.5378,0.5251 l 0.0061,0.0061 -0.1653,0.1351 -0.0024,0.002 -0.0086,0.0072 -0.0065,0.0042 -0.0064,0.0041 -0.1154,0.0972 -0.0022,0.0022 -0.1307,0.106 -0.0015,0.0015 -0.1124,0.0887 c 3.7814,3.8795 7.0638,8.2281 9.5831,12.8175 l 1.5819,-1.2792 z M 36.1104,30.8485 C 31.3405,26.424 25.9184,22.8387 20.0477,19.9026 l -0.1243,0.0484 0,2e-4 -0.129,0.0525 0,-2e-4 -0.1281,0.0537 -4e-4,0 -0.0031,0.0013 c -0.113,0.0479 -0.2236,0.0968 -0.332,0.146 5.6502,2.8756 11.0471,6.8862 15.7066,11.6092 0.0491,-0.0374 0.0968,-0.0757 0.1446,-0.1136 l 2e-4,2e-4 0.129,-0.1047 2e-4,3e-4 0.0939,-0.0791 0.0418,-0.0361 c 0.2376,-0.2041 0.4592,-0.4147 0.6633,-0.6322 z M 19.8465,19.8025 c -0.889,-0.4415 -1.7881,-0.8687 -2.6966,-1.2814 l -0.6315,0.3558 c 0.8789,0.3825 1.7541,0.794 2.6232,1.2319 0.1452,-0.0679 0.2976,-0.1362 0.4568,-0.2036 l 7e-4,-2e-4 0.0032,-0.0013 0,-3e-4 0.1288,-0.0538 7e-4,-5e-4 0.1147,-0.0466 z m 29.5369,21.4743 c -3.3107,-4.7539 -7.2379,-8.8313 -11.5895,-12.2959 -0.1772,0.4301 -0.4069,0.8483 -0.6867,1.251 4.1696,3.6684 7.8556,7.853 10.7101,12.3112 l 1.5661,-1.2663 z M 37.4788,28.7324 C 32.5915,24.8925 27.1807,21.8172 21.5142,19.4199 l -0.1268,0.0342 c -0.231,0.0653 -0.4561,0.1342 -0.6733,0.2065 l 0,2e-4 -0.0896,0.0305 c 5.6779,2.44 11.263,6.0002 16.191,10.2844 0.2748,-0.4005 0.4966,-0.8159 0.6633,-1.2433 z m -16.211,-9.4162 c -1.1073,-0.464 -2.224,-0.9026 -3.3482,-1.3156 l -0.614,0.3965 c 1.0311,0.3602 2.0635,0.7603 3.0923,1.1971 l 0.1298,-0.0462 5e-4,0 0.1324,-0.0448 7e-4,0 c 0.201,-0.0668 0.4042,-0.1288 0.6065,-0.187 z"
   inkscape:connector-curvature="0"
   style="fill:#990000;fill-rule:nonzero" />
   <path
   id="_158556968"
   class="fil2"
   d="m 26.0046,19.6006 -0.1456,7e-4 c -1.704,0.0148 -3.3202,0.3113 -4.7379,0.8233 -0.2862,0.1036 -0.5575,0.2126 -0.8117,0.326 -0.2466,0.11 -0.499,0.235 -0.7541,0.3732 l -7e-4,-9e-4 -0.104,0.0571 7e-4,0.0014 c -1.2784,0.7114 -2.322,1.6525 -2.9463,2.7546 -0.1191,0.2102 -0.2225,0.4235 -0.3066,0.6377 -0.0843,0.2139 -0.1539,0.4359 -0.2065,0.6652 l -0.003,0 -5e-4,0.002 0.0022,4e-4 c -0.2921,1.2803 -0.0015,2.562 0.7861,3.705 0.1577,0.2291 0.3375,0.4555 0.5372,0.676 0.2065,0.2277 0.4254,0.4434 0.6556,0.6429 l 2e-4,-2e-4 0.0053,0.0043 0.003,0.0033 c 0.7798,0.6755 1.7487,1.2587 2.8629,1.7108 0.2089,0.0848 0.4331,0.1682 0.6711,0.2495 1.4176,0.483 3.0227,0.758 4.7388,0.7583 l 0,-0.0031 0.0039,0 c 2.4796,0 4.6959,-0.5661 6.4299,-1.5068 0.3409,-0.1848 0.6563,-0.3792 0.9438,-0.58 0.2868,-0.2004 0.5577,-0.415 0.8102,-0.6418 l -0.0014,-0.0011 0.0022,-0.002 0.009,-0.0063 c 1.1652,-1.0507 1.835,-2.2924 1.9178,-3.578 l 2e-4,0 c 0.0158,-0.2455 0.0105,-0.4936 -0.0167,-0.7421 -0.0271,-0.2499 -0.0762,-0.501 -0.1471,-0.7504 l -7e-4,2e-4 -0.0015,-0.0046 0,-0.0031 c -0.3449,-1.2063 -1.1781,-2.2769 -2.3038,-3.1446 -0.224,-0.1726 -0.4614,-0.3384 -0.709,-0.4954 -0.2586,-0.1642 -0.517,-0.3131 -0.7723,-0.4464 l 6e-4,-0.0014 -0.0024,-10e-4 -0.0031,0 C 31.348,20.5306 30.1231,20.111 28.8055,19.8623 28.5381,19.8121 28.2719,19.7688 28.0087,19.7337 27.355,19.647 26.6839,19.6008 26.0046,19.6006 z m -0.157,-0.8487 0.1538,-7e-4 0.003,0 c 0.7561,4e-4 1.5002,0.0488 2.2219,0.1399 0.3059,0.0386 0.6037,0.0839 0.891,0.1356 1.4822,0.2662 2.8629,0.7167 4.0652,1.311 l -6e-4,0.0013 0.0024,0.0011 0.0031,0 c 0.3194,0.1581 0.6194,0.3216 0.8962,0.4885 0.2877,0.1739 0.566,0.3587 0.8321,0.5533 1.3929,1.0211 2.4339,2.3141 2.8843,3.8077 l 9e-4,-2e-4 0.0011,0.0042 0,0.0028 c 0.0987,0.3296 0.167,0.658 0.2038,0.9839 0.0373,0.3273 0.0447,0.6534 0.0228,0.9766 l 0,0.0028 c -0.1115,1.639 -0.9685,3.1893 -2.4562,4.4673 l 0.0011,0.0011 -0.0024,0.0019 -0.0092,0.0062 c -0.2998,0.257 -0.6269,0.5034 -0.9779,0.7368 -0.3535,0.235 -0.7211,0.4513 -1.0999,0.6468 -1.9695,1.0158 -4.4618,1.627 -7.2259,1.627 l -0.0044,0 0,-0.0031 c -1.9173,-4e-4 -3.7052,-0.2908 -5.2792,-0.8005 -0.2485,-0.0806 -0.5014,-0.1708 -0.7578,-0.2696 -1.2757,-0.4922 -2.4004,-1.1393 -3.322,-1.8978 l -3e-4,2e-4 -0.005,-0.0042 -0.0031,-0.0028 C 16.5878,31.4227 16.3189,31.1737 16.0811,30.9241 15.8349,30.6655 15.6107,30.3968 15.4104,30.1198 14.354,28.6616 13.9678,27.0093 14.3685,25.3409 l 0.0031,-0.0028 0.0013,-0.0046 -0.0031,-7e-4 c 0.0703,-0.2908 0.1651,-0.5772 0.2814,-0.8579 0.1163,-0.2805 0.2525,-0.5505 0.4062,-0.8082 0.7778,-1.3057 2.0465,-2.4035 3.5841,-3.2172 l 0.0033,0 0.1112,-0.0582 0.0031,-0.0028 c 0.2665,-0.1376 0.5579,-0.2738 0.8715,-0.4067 0.3063,-0.13 0.6153,-0.2485 0.9243,-0.3549 1.5845,-0.5446 3.3894,-0.8593 5.2901,-0.875 l 0.0026,0 z"
   inkscape:connector-curvature="0"
   style="fill:#990000;fill-rule:nonzero" />
   <path
   id="_158497952"
   class="fil2"
   d="m 26.0046,19.6006 -0.1456,7e-4 c -1.704,0.0148 -3.3202,0.3113 -4.7379,0.8233 -0.2862,0.1036 -0.5575,0.2126 -0.8117,0.326 -0.2466,0.11 -0.499,0.235 -0.7541,0.3732 l -7e-4,-9e-4 -0.104,0.0571 7e-4,0.0014 c -1.2784,0.7114 -2.322,1.6525 -2.9463,2.7546 -0.1191,0.2102 -0.2225,0.4235 -0.3066,0.6377 -0.0843,0.2139 -0.1539,0.4359 -0.2065,0.6652 l -0.003,0 -5e-4,0.002 0.0022,4e-4 c -0.2921,1.2803 -0.0015,2.562 0.7861,3.705 0.1577,0.2291 0.3375,0.4555 0.5372,0.676 0.2065,0.2277 0.4254,0.4434 0.6556,0.6429 l 2e-4,-2e-4 0.0053,0.0043 0.003,0.0033 c 0.7798,0.6755 1.7487,1.2587 2.8629,1.7108 0.2089,0.0848 0.4331,0.1682 0.6711,0.2495 1.4176,0.483 3.0227,0.758 4.7388,0.7583 l 0,-0.0031 0.0039,0 c 2.4796,0 4.6959,-0.5661 6.4299,-1.5068 0.3409,-0.1848 0.6563,-0.3792 0.9438,-0.58 0.2868,-0.2004 0.5577,-0.415 0.8102,-0.6418 l -0.0014,-0.0011 0.0022,-0.002 0.009,-0.0063 c 1.1652,-1.0507 1.835,-2.2924 1.9178,-3.578 l 2e-4,0 c 0.0158,-0.2455 0.0105,-0.4936 -0.0167,-0.7421 -0.0271,-0.2499 -0.0762,-0.501 -0.1471,-0.7504 l -7e-4,2e-4 -0.0015,-0.0046 0,-0.0031 c -0.3449,-1.2063 -1.1781,-2.2769 -2.3038,-3.1446 -0.224,-0.1726 -0.4614,-0.3384 -0.709,-0.4954 -0.2586,-0.1642 -0.517,-0.3131 -0.7723,-0.4464 l 6e-4,-0.0014 -0.0024,-10e-4 -0.0031,0 C 31.348,20.5306 30.1231,20.111 28.8055,19.8623 28.5381,19.8121 28.2719,19.7688 28.0087,19.7337 27.355,19.647 26.6839,19.6008 26.0046,19.6006 z m -0.157,-0.8487 0.1538,-7e-4 0.003,0 c 0.7561,4e-4 1.5002,0.0488 2.2219,0.1399 0.3059,0.0386 0.6037,0.0839 0.891,0.1356 1.4822,0.2662 2.8629,0.7167 4.0652,1.311 l -6e-4,0.0013 0.0024,0.0011 0.0031,0 c 0.3194,0.1581 0.6194,0.3216 0.8962,0.4885 0.2877,0.1739 0.566,0.3587 0.8321,0.5533 1.3929,1.0211 2.4339,2.3141 2.8843,3.8077 l 9e-4,-2e-4 0.0011,0.0042 0,0.0028 c 0.0987,0.3296 0.167,0.658 0.2038,0.9839 0.0373,0.3273 0.0447,0.6534 0.0228,0.9766 l 0,0.0028 c -0.1115,1.639 -0.9685,3.1893 -2.4562,4.4673 l 0.0011,0.0011 -0.0024,0.0019 -0.0092,0.0062 c -0.2998,0.257 -0.6269,0.5034 -0.9779,0.7368 -0.3535,0.235 -0.7211,0.4513 -1.0999,0.6468 -1.9695,1.0158 -4.4618,1.627 -7.2259,1.627 l -0.0044,0 0,-0.0031 c -1.9173,-4e-4 -3.7052,-0.2908 -5.2792,-0.8005 -0.2485,-0.0806 -0.5014,-0.1708 -0.7578,-0.2696 -1.2757,-0.4922 -2.4004,-1.1393 -3.322,-1.8978 l -3e-4,2e-4 -0.005,-0.0042 -0.0031,-0.0028 C 16.5878,31.4227 16.3189,31.1737 16.0811,30.9241 15.8349,30.6655 15.6107,30.3968 15.4104,30.1198 14.354,28.6616 13.9678,27.0093 14.3685,25.3409 l 0.0031,-0.0028 0.0013,-0.0046 -0.0031,-7e-4 c 0.0703,-0.2908 0.1651,-0.5772 0.2814,-0.8579 0.1163,-0.2805 0.2525,-0.5505 0.4062,-0.8082 0.7778,-1.3057 2.0465,-2.4035 3.5841,-3.2172 l 0.0033,0 0.1112,-0.0582 0.0031,-0.0028 c 0.2665,-0.1376 0.5579,-0.2738 0.8715,-0.4067 0.3063,-0.13 0.6153,-0.2485 0.9243,-0.3549 1.5845,-0.5446 3.3894,-0.8593 5.2901,-0.875 l 0.0026,0 z"
   inkscape:connector-curvature="0"
   style="fill:#990000;fill-rule:nonzero" />
  </g>
 </g>
</svg>