<?xml version="1.0" encoding="utf-8"?>
<!-- Generator: Adobe Illustrator 12.0.0, SVG Export Plug-In  -->
<!DOCTYPE svg PUBLIC "-//W3C//DTD SVG 1.1//EN" "http://www.w3.org/Graphics/SVG/1.1/DTD/svg11.dtd" [
	<!ENTITY ns_flows "http://ns.adobe.com/Flows/1.0/">
	<!ENTITY ns_svg "http://www.w3.org/2000/svg">
	<!ENTITY ns_xlink "http://www.w3.org/1999/xlink">
]>
<svg  version="1.1" xmlns="&ns_svg;" xmlns:xlink="&ns_xlink;" xmlns:a="http://ns.adobe.com/AdobeSVGViewerExtensions/3.0/"
	 width="283" height="283" viewBox="-3.912 -2.726 283 283" enable-background="new -3.912 -2.726 283 283" xml:space="preserve">
<defs>
</defs>
<path fill="none" stroke="#0066B3" stroke-width="0.209" stroke-miterlimit="10" d="M35.059,69.756
	c19.173,0,34.809-15.644,34.809-34.826c0-19.183-15.636-34.826-34.809-34.826S0.25,15.747,0.25,34.93
	C0.25,54.111,15.886,69.756,35.059,69.756z"/>
<path fill="none" stroke="#0066B3" stroke-width="0.147" stroke-miterlimit="10" d="M35.059,68.444
	c18.453,0,33.498-15.052,33.498-33.514c0-18.462-15.044-33.515-33.498-33.515S1.561,16.467,1.561,34.929
	S16.605,68.444,35.059,68.444z"/>
<path fill="#0066B3" d="M38.638,65.454l-0.581,0.016h-0.474l-1.203,0.051l-0.309,0.005l-0.297,0.005l-0.617,0.026
	c-0.19,0-0.375-0.011-0.56-0.032c-0.18-0.021-0.36-0.051-0.535-0.097c-0.35-0.083-0.53-0.257-0.53-0.515
	c0-0.16,0.092-0.282,0.267-0.369c0.107-0.053,0.185-0.099,0.221-0.134c0.036-0.026,0.076-0.104,0.113-0.221l0.031-0.141l0.031-0.143
	l0.015-0.262v-0.319l0.026-0.756l-0.006-0.777l-0.005-0.256L34.22,61.2l-0.01-0.35c0-0.087-0.01-0.185-0.031-0.283
	c-0.02-0.099-0.046-0.165-0.087-0.201c-0.03-0.041-0.098-0.083-0.205-0.134c-0.102-0.051-0.18-0.102-0.231-0.144
	c-0.052-0.046-0.077-0.109-0.077-0.185c0-0.298,0.216-0.495,0.652-0.597c0.437-0.107,0.88-0.16,1.322-0.16
	c0.17,0,0.324,0.011,0.473,0.032c0.15,0.021,0.289,0.046,0.417,0.083c0.282,0.072,0.421,0.226,0.421,0.463
	c0,0.123-0.025,0.22-0.083,0.283c-0.056,0.066-0.149,0.139-0.273,0.211c-0.077,0.051-0.128,0.107-0.153,0.175
	c-0.01,0.036-0.016,0.087-0.021,0.149c-0.005,0.061-0.01,0.139-0.01,0.236v2.819c0,0.248,0.021,0.433,0.066,0.566
	c0.042,0.139,0.109,0.236,0.207,0.309c0.108,0.051,0.242,0.083,0.401,0.083c0.211,0,0.355-0.026,0.438-0.077
	c0.083-0.051,0.134-0.166,0.164-0.34c0.032-0.174,0.046-0.478,0.046-0.91V61.31c0-0.438-0.015-0.715-0.041-0.844
	c-0.025-0.124-0.072-0.205-0.138-0.246L37.4,60.184l-0.093-0.063l-0.092-0.081c-0.046-0.046-0.073-0.124-0.073-0.228
	c0-0.093,0.017-0.17,0.042-0.236c0.026-0.067,0.097-0.134,0.207-0.206c0.113-0.066,0.287-0.123,0.523-0.159
	c0.237-0.042,0.525-0.063,0.865-0.063c0.997,0,1.496,0.196,1.496,0.577c0,0.123-0.025,0.22-0.083,0.283
	c-0.057,0.066-0.144,0.139-0.273,0.211c-0.072,0.046-0.119,0.098-0.148,0.164c-0.021,0.063-0.037,0.196-0.037,0.396v2.819
	c0,0.248,0.026,0.433,0.066,0.567c0.041,0.139,0.114,0.236,0.207,0.309c0.113,0.051,0.243,0.083,0.401,0.083
	c0.195,0,0.34-0.031,0.428-0.083c0.086-0.051,0.144-0.17,0.174-0.35l0.031-0.354l0.015-0.541V61.31c0-0.442-0.015-0.725-0.042-0.844
	c-0.025-0.124-0.071-0.205-0.139-0.246c-0.117-0.067-0.205-0.129-0.251-0.18c-0.051-0.046-0.078-0.124-0.078-0.228
	c0-0.093,0.02-0.17,0.051-0.236c0.026-0.072,0.092-0.139,0.201-0.201c0.102-0.061,0.272-0.118,0.509-0.159
	c0.236-0.042,0.53-0.067,0.879-0.067c1.049,0,1.574,0.211,1.574,0.628c0,0.19-0.083,0.329-0.252,0.416
	c-0.103,0.042-0.18,0.093-0.231,0.144c-0.041,0.057-0.078,0.185-0.103,0.391l-0.021,0.391l-0.01,0.571v2.305
	c0,0.133,0.015,0.242,0.051,0.313c0.036,0.078,0.109,0.15,0.221,0.216c0.107,0.056,0.185,0.108,0.236,0.155
	c0.041,0.051,0.067,0.124,0.067,0.221c0,0.164-0.109,0.319-0.319,0.453c-0.211,0.133-0.694,0.206-1.439,0.206h-0.427l-0.391-0.011
	l-0.894-0.042l-0.814-0.035L38.638,65.454z"/>
<path fill="#0066B3" d="M26.174,60.655c0.195-0.448,0.458-0.828,0.797-1.147c0.339-0.32,0.72-0.551,1.146-0.7
	c0.422-0.146,0.88-0.211,1.374-0.196c0.221,0.01,0.452,0.046,0.703,0.104c0.248,0.057,0.484,0.134,0.716,0.231
	c0.565,0.246,1.012,0.566,1.346,0.967c0.335,0.406,0.566,0.833,0.69,1.296c0.128,0.458,0.175,0.901,0.139,1.322
	c-0.031,0.423-0.114,0.788-0.241,1.096c-0.206,0.469-0.479,0.849-0.829,1.147c-0.345,0.299-0.74,0.52-1.182,0.659
	c-0.196,0.056-0.421,0.103-0.673,0.139c-0.207,0.031-0.442,0.036-0.71,0.02c-0.483-0.03-0.946-0.139-1.383-0.329
	c-0.452-0.195-0.837-0.452-1.167-0.782c-0.333-0.324-0.586-0.7-0.761-1.121c-0.175-0.422-0.263-0.865-0.256-1.333
	C25.882,61.561,25.984,61.104,26.174,60.655 M29.948,60.08c-0.227-0.099-0.447-0.078-0.659,0.056
	c-0.215,0.134-0.37,0.324-0.473,0.561c-0.083,0.185-0.155,0.452-0.226,0.807c-0.068,0.35-0.109,0.715-0.119,1.08
	c-0.01,0.372,0.026,0.7,0.119,0.989c0.087,0.287,0.246,0.479,0.472,0.576c0.243,0.107,0.474,0.092,0.679-0.031
	c0.211-0.124,0.371-0.314,0.484-0.576c0.134-0.314,0.242-0.72,0.318-1.215c0.078-0.494,0.078-0.956,0-1.393
	C30.461,60.501,30.262,60.213,29.948,60.08"/>
<path fill="#0066B3" d="M62.14,42.667c0.267-0.257,0.354-0.709,0.323-1.291c-0.031-0.576-0.467-1.033-0.797-1.611
	c0.072,0.767,0.094,1.672-0.093,2.068c-0.277,0.602-0.508,1.127-0.667,1.575c-0.474,0.94-0.248,2.479,1.177,2.808
	c2.267,0.391,3.872-1.882,1.604-5.739c-2.427-3.818,0.55-4.688,0.962-3.685c0.411,1.004-0.221,1.24-0.622,1.163
	c0.107,0.607,0.36,0.906,0.91,0.767c-0.2,0.287-0.477,0.792-0.267,1.507l0.597,1.379c-0.201-1.08,0.22-1.534,0.647-2.891
	c0.426-1.358,0.134-3.324-2.128-3.251c-2.273,0.068-2.16,3.328-0.128,6.671c1.223,2.712-1.172,3.503-1.631,2.355
	c-0.333-0.833,0.124-1.08,0.433-1.218c0.313-0.144,0.391-0.041,0.576-0.092C62.937,42.815,62.663,42.614,62.14,42.667"/>
<path fill="#0066B3" d="M48.741,59.416c0.375,0.021,0.761-0.226,1.161-0.642c0.396-0.422,0.433-1.055,0.627-1.687
	c-0.508,0.576-1.155,1.213-1.568,1.352c-0.627,0.207-1.172,0.401-1.604,0.587c-1.014,0.297-1.979,1.517-1.24,2.783
	c1.27,1.918,4.021,1.532,5.281-2.763c1.116-4.383,3.789-2.81,3.337-1.821c-0.447,0.982-1.055,0.684-1.27,0.345
	c-0.365,0.489-0.411,0.88,0.061,1.184c-0.34,0.056-0.9,0.195-1.274,0.838l-0.602,1.378c0.653-0.885,1.271-0.885,2.55-1.507
	c1.281-0.617,2.514-2.181,0.916-3.776c-1.609-1.609-3.908,0.705-4.948,4.475c-1.141,2.747-3.356,1.543-2.837,0.427
	c0.381-0.817,0.875-0.653,1.188-0.52c0.313,0.128,0.292,0.252,0.462,0.354C49.182,60.101,49.136,59.765,48.741,59.416"/>
<path fill="#0066B3" d="M59.815,21.504c-0.02-0.376-0.313-0.731-0.771-1.081c-0.462-0.35-1.095-0.313-1.748-0.442
	c0.632,0.447,1.337,1.019,1.522,1.415c0.277,0.597,0.53,1.117,0.761,1.528c0.411,0.972,1.727,1.795,2.904,0.921
	c1.765-1.477,1.076-4.172-3.336-4.943c-4.478-0.618-3.208-3.447-2.179-3.113c1.027,0.335,0.796,0.972,0.483,1.226
	c0.529,0.309,0.92,0.313,1.172-0.195c0.086,0.333,0.292,0.88,0.971,1.177l1.44,0.442c-0.956-0.55-1.022-1.162-1.784-2.366
	c-0.756-1.209-2.448-2.253-3.856-0.489c-1.415,1.78,1.141,3.806,4.997,4.419c2.859,0.822,1.913,3.163,0.746,2.773
	c-0.854-0.289-0.746-0.792-0.654-1.122c0.093-0.329,0.221-0.324,0.304-0.499C60.443,20.988,60.119,21.071,59.815,21.504"/>
<path fill="#0066B3" d="M42.818,7.871c-0.279-0.252-0.736-0.309-1.311-0.236c-0.571,0.071-0.998,0.54-1.553,0.904
	c0.761-0.124,1.666-0.206,2.072-0.051c0.617,0.236,1.157,0.433,1.609,0.561c0.971,0.411,2.494,0.087,2.726-1.364
	c0.236-2.289-2.14-3.735-5.835-1.214c-3.641,2.68-4.705-0.231-3.734-0.71c0.973-0.473,1.25,0.139,1.199,0.541
	c0.597-0.145,0.88-0.417,0.705-0.958c0.297,0.18,0.822,0.421,1.517,0.164l1.336-0.684c-1.063,0.268-1.542-0.124-2.926-0.458
	c-1.382-0.335-3.321,0.092-3.1,2.346c0.226,2.263,3.47,1.935,6.664-0.325c2.622-1.403,3.573,0.938,2.462,1.472
	c-0.813,0.391-1.085-0.051-1.249-0.35c-0.16-0.303-0.067-0.386-0.128-0.566C42.911,7.064,42.73,7.352,42.818,7.871"/>
<path fill="#0066B3" d="M59.435,49.065c-0.026,0.376-0.318,0.731-0.782,1.075c-0.467,0.345-1.095,0.304-1.748,0.422
	c0.632-0.438,1.342-1.004,1.527-1.395c0.289-0.596,0.54-1.115,0.782-1.522c0.416-0.967,1.742-1.78,2.911-0.895
	c1.752,1.49,1.032,4.181-3.379,4.912c-4.484,0.576-3.245,3.42-2.216,3.091c1.033-0.323,0.812-0.962,0.499-1.22
	c0.53-0.303,0.921-0.303,1.167,0.207c0.092-0.335,0.303-0.875,0.987-1.167l1.439-0.427c-0.956,0.541-1.033,1.152-1.805,2.351
	c-0.766,1.193-2.468,2.227-3.856,0.447c-1.403-1.79,1.172-3.796,5.039-4.373c2.864-0.797,1.938-3.142,0.766-2.762
	c-0.854,0.278-0.75,0.788-0.664,1.116c0.094,0.329,0.222,0.324,0.299,0.499C60.058,49.585,59.733,49.503,59.435,49.065"/>
<path fill="#0066B3" d="M62.34,27.886c0.247,0.284,0.293,0.741,0.206,1.317c-0.083,0.571-0.561,0.988-0.936,1.533
	c0.139-0.756,0.241-1.662,0.093-2.068c-0.221-0.627-0.406-1.172-0.519-1.625c-0.391-0.982-0.031-2.495,1.423-2.696
	c2.293-0.18,3.688,2.228,1.08,5.865c-2.761,3.58,0.124,4.712,0.622,3.755c0.499-0.962-0.107-1.255-0.513-1.213
	c0.159-0.597,0.442-0.87,0.971-0.685c-0.168-0.304-0.401-0.833-0.128-1.522l0.72-1.322c-0.298,1.06,0.083,1.548,0.386,2.937
	c0.304,1.396-0.17,3.322-2.412,3.05c-2.257-0.277-1.855-3.513,0.474-6.657c1.459-2.592-0.854-3.601-1.414-2.5
	c-0.407,0.802,0.025,1.09,0.324,1.26c0.297,0.165,0.38,0.073,0.565,0.145C63.147,27.815,62.86,27.985,62.34,27.886"/>
<path fill="#0066B3" d="M49.224,11.061c0.376-0.025,0.772,0.211,1.178,0.617c0.411,0.413,0.462,1.04,0.674,1.672
	c-0.525-0.566-1.188-1.188-1.605-1.313c-0.632-0.195-1.182-0.375-1.615-0.55c-1.023-0.272-2.02-1.466-1.311-2.752
	c1.224-1.951,3.984-1.631,5.348,2.633c1.223,4.353,3.856,2.712,3.382,1.74c-0.474-0.972-1.074-0.664-1.279-0.313
	c-0.381-0.485-0.438-0.87,0.03-1.19c-0.339-0.04-0.905-0.174-1.296-0.807l-0.632-1.362c0.673,0.868,1.291,0.858,2.587,1.444
	s2.565,2.12,1.007,3.755c-1.568,1.646-3.922-0.612-5.059-4.352c-1.204-2.722-3.394-1.467-2.844-0.361
	c0.401,0.809,0.885,0.634,1.198,0.495c0.313-0.139,0.289-0.262,0.453-0.366C49.651,10.365,49.615,10.7,49.224,11.061"/>
<path fill="#0066B3" d="M7.978,42.667c-0.268-0.257-0.354-0.709-0.324-1.291c0.03-0.576,0.467-1.033,0.796-1.611
	c-0.071,0.767-0.092,1.672,0.092,2.068c0.274,0.602,0.51,1.127,0.669,1.575c0.473,0.94,0.247,2.479-1.177,2.808
	c-2.267,0.391-3.872-1.882-1.605-5.739c2.427-3.818-0.55-4.688-0.961-3.685c-0.411,1.003,0.221,1.24,0.623,1.163
	c-0.109,0.607-0.36,0.906-0.91,0.767c0.195,0.287,0.478,0.792,0.266,1.507l-0.596,1.379c0.201-1.08-0.221-1.534-0.647-2.891
	c-0.427-1.358-0.134-3.324,2.128-3.251c2.273,0.068,2.159,3.328,0.128,6.671c-1.224,2.712,1.172,3.503,1.63,2.355
	c0.334-0.833-0.123-1.08-0.432-1.218c-0.313-0.144-0.391-0.041-0.576-0.092C7.181,42.815,7.454,42.614,7.978,42.667"/>
<path fill="#0066B3" d="M21.377,59.416c-0.375,0.021-0.767-0.226-1.163-0.642c-0.395-0.422-0.431-1.055-0.632-1.687
	c0.515,0.576,1.162,1.213,1.573,1.352c0.627,0.207,1.172,0.401,1.6,0.587c1.019,0.297,1.984,1.517,1.245,2.783
	c-1.271,1.918-4.026,1.532-5.281-2.763c-1.116-4.383-3.789-2.81-3.337-1.821c0.447,0.982,1.054,0.684,1.27,0.345
	c0.365,0.489,0.411,0.88-0.061,1.184c0.338,0.056,0.9,0.195,1.274,0.838l0.601,1.378c-0.652-0.885-1.27-0.885-2.549-1.507
	c-1.286-0.617-2.514-2.181-0.916-3.776c1.609-1.609,3.908,0.705,4.946,4.475c1.142,2.747,3.357,1.543,2.839,0.427
	c-0.381-0.817-0.875-0.653-1.188-0.52c-0.313,0.128-0.292,0.252-0.462,0.354C20.934,60.101,20.981,59.765,21.377,59.416"/>
<path fill="#0066B3" d="M10.303,21.504c0.02-0.376,0.313-0.731,0.771-1.081c0.462-0.35,1.095-0.313,1.744-0.442
	c-0.627,0.447-1.333,1.019-1.517,1.415c-0.277,0.597-0.53,1.117-0.761,1.528c-0.411,0.972-1.733,1.795-2.905,0.921
	c-1.764-1.477-1.075-4.172,3.336-4.943c4.479-0.618,3.209-3.447,2.181-3.113c-1.028,0.335-0.797,0.972-0.484,1.226
	c-0.528,0.309-0.919,0.313-1.172-0.195c-0.087,0.333-0.292,0.88-0.971,1.177l-1.439,0.442c0.956-0.55,1.022-1.162,1.783-2.366
	c0.756-1.209,2.448-2.253,3.856-0.489c1.415,1.78-1.141,3.806-4.997,4.419c-2.864,0.822-1.913,3.163-0.746,2.773
	c0.854-0.289,0.746-0.792,0.653-1.122c-0.092-0.329-0.221-0.324-0.303-0.499C9.675,20.988,9.999,21.071,10.303,21.504"/>
<path fill="#0066B3" d="M27.3,7.871c0.277-0.252,0.735-0.309,1.306-0.236c0.576,0.071,1.002,0.54,1.559,0.904
	c-0.761-0.124-1.666-0.206-2.072-0.051c-0.617,0.236-1.157,0.433-1.609,0.561c-0.978,0.411-2.495,0.087-2.726-1.364
	c-0.236-2.289,2.139-3.735,5.835-1.214c3.641,2.68,4.705-0.231,3.733-0.71c-0.971-0.473-1.25,0.139-1.197,0.541
	c-0.597-0.145-0.88-0.417-0.705-0.958c-0.299,0.18-0.822,0.421-1.517,0.164l-1.342-0.684c1.07,0.268,1.543-0.124,2.925-0.458
	c1.389-0.335,3.328,0.092,3.105,2.346c-0.226,2.263-3.47,1.935-6.663-0.325c-2.622-1.403-3.573,0.938-2.463,1.472
	c0.813,0.391,1.086-0.051,1.25-0.35c0.16-0.303,0.067-0.386,0.128-0.566C27.207,7.064,27.388,7.352,27.3,7.871"/>
<path fill="#0066B3" d="M10.682,49.065c0.026,0.376,0.319,0.731,0.781,1.075c0.463,0.345,1.096,0.304,1.75,0.422
	c-0.634-0.438-1.342-1.004-1.534-1.395c-0.282-0.596-0.54-1.115-0.776-1.522c-0.421-0.967-1.743-1.78-2.911-0.895
	c-1.753,1.49-1.033,4.181,3.379,4.912c4.482,0.576,3.244,3.42,2.215,3.091c-1.033-0.323-0.812-0.962-0.499-1.22
	c-0.53-0.303-0.926-0.303-1.167,0.207c-0.092-0.335-0.304-0.875-0.987-1.167l-1.439-0.427c0.956,0.541,1.033,1.152,1.805,2.351
	c0.766,1.193,2.468,2.227,3.856,0.447c1.403-1.79-1.173-3.796-5.04-4.373c-2.863-0.797-1.938-3.142-0.766-2.762
	c0.854,0.278,0.751,0.788,0.664,1.116c-0.092,0.329-0.221,0.324-0.299,0.499C10.06,49.585,10.384,49.503,10.682,49.065"/>
<path fill="#0066B3" d="M7.777,27.886c-0.246,0.284-0.292,0.741-0.205,1.317c0.083,0.571,0.56,0.988,0.936,1.533
	c-0.14-0.756-0.243-1.662-0.092-2.068c0.221-0.627,0.401-1.172,0.519-1.625c0.391-0.982,0.026-2.495-1.425-2.696
	c-2.293-0.18-3.686,2.228-1.08,5.865c2.762,3.58-0.123,4.712-0.622,3.755c-0.499-0.962,0.108-1.255,0.515-1.213
	c-0.165-0.597-0.442-0.87-0.972-0.685c0.17-0.304,0.401-0.833,0.124-1.522l-0.714-1.322c0.299,1.06-0.083,1.548-0.385,2.937
	c-0.304,1.396,0.17,3.322,2.41,3.05c2.258-0.277,1.852-3.513-0.472-6.657c-1.466-2.592,0.854-3.601,1.413-2.5
	c0.406,0.802-0.025,1.09-0.324,1.26c-0.297,0.165-0.381,0.073-0.565,0.145C6.971,27.815,7.258,27.985,7.777,27.886"/>
<path fill="#0066B3" d="M20.893,11.061c-0.375-0.025-0.771,0.211-1.177,0.617c-0.411,0.413-0.462,1.04-0.673,1.672
	c0.525-0.566,1.188-1.188,1.604-1.313c0.633-0.195,1.177-0.375,1.615-0.55c1.023-0.272,2.016-1.466,1.311-2.752
	c-1.224-1.951-3.985-1.631-5.348,2.633c-1.223,4.353-3.856,2.712-3.382,1.74c0.473-0.972,1.07-0.664,1.28-0.313
	c0.381-0.485,0.437-0.87-0.03-1.19c0.339-0.04,0.905-0.174,1.294-0.807l0.633-1.362c-0.674,0.868-1.291,0.858-2.586,1.444
	s-2.566,2.12-1.008,3.755c1.568,1.646,3.924-0.612,5.06-4.352c1.204-2.722,3.394-1.467,2.843-0.361
	c-0.399,0.809-0.888,0.634-1.197,0.495c-0.313-0.139-0.289-0.262-0.453-0.366C20.467,10.365,20.503,10.7,20.893,11.061"/>
<path fill="#0066B3" d="M35.059,4.471c0.333,0,0.601-0.268,0.601-0.603c0-0.333-0.268-0.601-0.601-0.601
	c-0.335,0-0.601,0.268-0.601,0.601C34.458,4.203,34.724,4.471,35.059,4.471"/>
<path fill="#0066B3" d="M56.977,42.918c-2.057,6.096-6.432,10.422-12.725,13.271c-4.607-5.956-15.301-5.607-19.014-0.071
	c-5.182-1.754-9.333-6.358-12.026-12.738l2.925-6.451h1.297l0.847-3.441l6.334-3.297l0.695-0.046l0.55-0.752l1.846-0.699
	l0.551,4.893l2.493,5.287l0.797,0.051l0.946-6.887c2.478-0.315,5.136-0.114,7.876,0.499l0.304,1.147l1.542,0.35l1.846,4.64
	l1.147,0.299l0.2-8.627l1.548,0.194l1.347,1.2l1.841,1.147l0.35,0.401l0.997,1.096l0.601,0.849l1.594,0.2L56.977,42.918z"/>
<path fill="none" stroke="#0066B3" stroke-width="0.147" stroke-miterlimit="10" d="M35.059,10.34
	c13.532,0,24.577,11.044,24.577,24.589c0,10.401-6.52,19.332-15.677,22.912c-1.625-3.097-5.481-5.006-9.188-5.006
	c-4.066,0-7.748,1.806-9.183,4.775c-0.015-0.006-0.025-0.012-0.036-0.012c-8.839-3.734-15.069-12.495-15.069-22.669
	C10.482,21.385,21.52,10.34,35.059,10.34z"/>
<path fill="#FFFFFF" d="M34.966,49.07c0.385-1.194,1.213-1.147,1.974-0.329C36.873,46.508,34.534,47.255,34.966,49.07"/>
<path fill="#FFFFFF" d="M34.858,49.07c-0.385-1.194-1.213-1.147-1.974-0.329C32.951,46.508,35.29,47.255,34.858,49.07"/>
<path fill="#FFFFFF" d="M34.904,44.693c0.226,0.494,0.452,0.978,0.468,1.539c0.015,0.458-0.231,0.802-0.457,1.111
	c-0.345-0.324-0.499-0.632-0.458-1.111S34.668,45.203,34.904,44.693"/>
<path fill="#FFFFFF" d="M30.143,50.742c0.016,0,0.026-0.005,0.041-0.005v0.005c0.807-0.01,1.286-0.252,0.838-0.967
	c-0.226,0.097-0.591,0.376-0.89,0.031c-0.257-0.545,0.741-1.086,1.26-0.673c1.116,0.885,1.327,1.794,2.247,1.548
	c0.51-0.35,0.705-0.695,0.206-1.025c-0.282,0.401-0.55,0.49-0.833,0.232c-0.227-0.51,0.401-0.88,0.982-0.767
	c0.931,0.175,1.198,1.096,0.509,1.868c-0.694,0.767-1.573,0.541-2.642-0.058c-0.53,0.535-1.106,0.809-1.743,0.757l-0.005,0.005
	c-0.643-0.067-1.157-0.263-1.445-0.763c-0.535,0.535-1.116,0.809-1.758,0.757l0.01-0.201l-0.017,0.207
	c-0.647-0.067-1.162-0.263-1.45-0.763c-0.535,0.535-1.111,0.809-1.758,0.757l-0.026,0.005c-0.647-0.067-1.162-0.262-1.45-0.763
	c-0.53,0.535-1.111,0.809-1.748,0.757v0.005c-0.647-0.067-1.162-0.262-1.45-0.763c-0.077,0.226-0.124,0.35-0.406,0.469
	c-0.438-0.247-0.822-0.535-1.085-0.911c0.833,0,1.105,0.011,0.652-0.714c-0.226,0.098-0.591,0.376-0.89,0.032
	c-0.256-0.545,0.741-1.086,1.26-0.674c1.096,0.869,1.069,1.738,1.949,1.609c0.01,0,0.025-0.005,0.041-0.005l-0.005,0.005
	c0.806-0.01,1.285-0.252,0.837-0.967c-0.227,0.097-0.591,0.376-0.89,0.031c-0.251-0.545,0.766-1.106,1.266-0.673
	c1.023,0.895,0.992,1.62,1.984,1.614v-0.005c0.827,0,1.332-0.241,0.874-0.967c-0.221,0.098-0.591,0.376-0.884,0.032
	c-0.257-0.545,0.74-1.086,1.26-0.674c1.054,0.839,1.002,1.785,2.087,1.744v0.005c0.812-0.005,1.204-0.386,0.751-1.106
	c-0.226,0.097-0.591,0.376-0.89,0.031c-0.252-0.545,0.705-1.03,1.265-0.673C29.563,50.006,29.434,50.6,30.143,50.742"/>
<path fill="#FFFFFF" d="M39.64,50.742c-0.015,0-0.026-0.005-0.042-0.005v0.005c-0.807-0.01-1.286-0.252-0.838-0.967
	c0.226,0.097,0.591,0.376,0.89,0.031c0.258-0.545-0.74-1.086-1.26-0.673c-1.116,0.885-1.326,1.794-2.247,1.548
	c-0.509-0.35-0.705-0.695-0.207-1.025c0.284,0.401,0.551,0.49,0.833,0.232c0.226-0.51-0.406-0.88-0.982-0.767
	c-0.931,0.175-1.198,1.096-0.509,1.868c0.694,0.767,1.574,0.541,2.644-0.058c0.528,0.535,1.104,0.809,1.742,0.757v0.005
	c0.648-0.067,1.162-0.263,1.451-0.763c0.535,0.535,1.115,0.809,1.758,0.757l-0.01-0.201l0.015,0.207
	c0.649-0.067,1.163-0.263,1.45-0.763c0.535,0.535,1.111,0.809,1.753,0.757l0.031,0.005c0.647-0.067,1.162-0.262,1.449-0.763
	c0.53,0.535,1.106,0.809,1.749,0.757v0.005c0.648-0.067,1.162-0.262,1.45-0.763c0.077,0.226,0.119,0.35,0.407,0.469
	c0.436-0.247,0.817-0.535,1.084-0.911c-0.833,0-1.106,0.011-0.653-0.714c0.226,0.098,0.591,0.376,0.89,0.032
	c0.257-0.545-0.746-1.086-1.26-0.674c-1.096,0.869-1.07,1.738-1.95,1.609c-0.01,0-0.025-0.005-0.04-0.005v0.005
	c-0.802-0.01-1.281-0.252-0.833-0.967c0.226,0.097,0.591,0.376,0.889,0.031c0.251-0.545-0.766-1.106-1.265-0.673
	c-1.023,0.895-0.992,1.62-1.984,1.614v-0.005c-0.833,0-1.332-0.241-0.875-0.967c0.221,0.098,0.586,0.376,0.884,0.032
	c0.258-0.545-0.741-1.086-1.259-0.674c-1.055,0.839-1.003,1.785-2.088,1.744v0.005c-0.812-0.005-1.203-0.386-0.75-1.106
	c0.226,0.097,0.591,0.376,0.888,0.031c0.252-0.545-0.704-1.03-1.265-0.673C40.221,50.006,40.345,50.6,39.64,50.742"/>
<path fill="none" stroke="#FFFFFF" stroke-width="0.029" stroke-miterlimit="10" d="M19.012,51.823
	c0.971,0.761,2.282,0.688,3.084-0.078c1.121,0.725,2.247,0.751,3.368,0.078c1.172,0.519,2.251,0.576,3.209,0.046
	c1.265,0.319,2.046,0.339,3.181,0.046"/>
<path fill="none" stroke="#FFFFFF" stroke-width="0.029" stroke-miterlimit="10" d="M50.777,51.823
	c-0.997,0.761-2.334,0.688-3.151-0.078c-1.147,0.725-2.293,0.751-3.436,0.078c-1.197,0.519-2.303,0.576-3.275,0.046
	c-1.296,0.319-2.092,0.339-3.249,0.046"/>
<path fill="#FFCB05" d="M34.961,19.184c1.476,0,2.678-1.204,2.678-2.681c0-1.471-1.202-2.674-2.678-2.674
	c-1.476,0-2.679,1.204-2.679,2.674C32.282,17.979,33.486,19.184,34.961,19.184"/>
<path fill="none" stroke="#E5AE70" stroke-width="0.029" stroke-miterlimit="10" d="M34.961,19.184c1.476,0,2.678-1.204,2.678-2.681
	c0-1.471-1.202-2.674-2.678-2.674c-1.476,0-2.679,1.204-2.679,2.674C32.282,17.979,33.486,19.184,34.961,19.184z"/>
<path fill="none" stroke="#FFCB05" stroke-width="0.147" stroke-miterlimit="10" d="M39.542,12.156l-2.545,2.588"/>
<path fill="none" stroke="#FFCB05" stroke-width="0.147" stroke-miterlimit="10" d="M43.404,13.329l-5.872,2.489"/>
<path fill="none" stroke="#FFCB05" stroke-width="0.147" stroke-miterlimit="10" d="M37.121,11.801l-0.997,2.187"/>
<path fill="none" stroke="#FFCB05" stroke-width="0.147" stroke-miterlimit="10" d="M34.961,11.585v2.258"/>
<path fill="none" stroke="#FFCB05" stroke-width="0.147" stroke-miterlimit="10" d="M37.393,17.517l19.636,9.527"/>
<path fill="none" stroke="#FFCB05" stroke-width="0.147" stroke-miterlimit="10" d="M36.72,18.566l9.794,11.034"/>
<path fill="none" stroke="#FFCB05" stroke-width="0.147" stroke-miterlimit="10" d="M35.727,19.121l4.92,12.743"/>
<path fill="none" stroke="#FFCB05" stroke-width="0.147" stroke-miterlimit="10" d="M34.961,19.121v12.027"/>
<path fill="none" stroke="#FFCB05" stroke-width="0.147" stroke-miterlimit="10" d="M30.38,12.156l2.544,2.588"/>
<path fill="none" stroke="#FFCB05" stroke-width="0.147" stroke-miterlimit="10" d="M26.524,13.329l5.866,2.489"/>
<path fill="none" stroke="#FFCB05" stroke-width="0.147" stroke-miterlimit="10" d="M32.802,11.801l0.997,2.187"/>
<path fill="none" stroke="#FFCB05" stroke-width="0.147" stroke-miterlimit="10" d="M32.53,17.517l-19.637,9.527"/>
<path fill="none" stroke="#FFCB05" stroke-width="0.147" stroke-miterlimit="10" d="M33.208,18.566l-9.801,11.034"/>
<path fill="none" stroke="#FFCB05" stroke-width="0.147" stroke-miterlimit="10" d="M34.196,19.121l-4.917,12.743"/>
<path fill="none" stroke="#FFCB05" stroke-width="0.147" stroke-miterlimit="10" d="M20.564,16.504h11.754"/>
<path fill="none" stroke="#FFCB05" stroke-width="0.147" stroke-miterlimit="10" d="M37.496,16.504H49.25"/>
<path fill="none" stroke="#0066B3" stroke-width="0.147" stroke-miterlimit="10" d="M35.059,11.544
	c13.089,0.051,23.383,11.287,23.317,22.81c-0.072,11.522-5.984,17.881-14.119,21.964c-1.537-2.926-5.969-4.506-9.471-4.506
	c-3.841,0-8.144,1.472-9.502,4.28c-5.563-1.481-14.021-10.833-13.734-21.213C11.917,21.668,21.968,11.492,35.059,11.544z"/>
<path fill="none" stroke="#426787" stroke-width="0.071" stroke-miterlimit="10" d="M57.332,41.591l-3.034-6.929l-1.768-0.277
	l-1.707-2.331l-1.816-0.823l-1.428-1.383l-2.973-0.268l-0.107,7.623c-0.576-1.177-1.084-2.428-1.522-3.75
	c-0.53-0.123-1.06-0.251-1.588-0.38l-0.191-0.988c-2.771-0.786-5.676-1.255-9.146-0.915c-0.797,1.913-0.807,4.181-1.08,6.173
	l-1.909-3.761l-0.446-6.003c-1.605,0.304-3.009,0.654-3.683,1.621l-1.588,0.824l-5.527,2.797l-0.951,3.37H15.66l-2.669,6.23"/>
<path fill="none" stroke="#FFFFFF" stroke-width="0.5" stroke-miterlimit="10" d="M35.059,149.756
	c19.173,0,34.809-15.644,34.809-34.826c0-19.183-15.636-34.826-34.809-34.826S0.25,95.747,0.25,114.93
	C0.25,134.111,15.886,149.756,35.059,149.756z"/>
<path fill="none" stroke="#FFFFFF" stroke-width="0.5" stroke-miterlimit="10" d="M35.059,148.444
	c18.453,0,33.498-15.051,33.498-33.514c0-18.462-15.044-33.515-33.498-33.515S1.561,96.467,1.561,114.929
	S16.605,148.444,35.059,148.444z"/>
<path fill="#FFFFFF" d="M38.638,145.454l-0.581,0.017h-0.474l-1.203,0.052l-0.309,0.004l-0.297,0.006l-0.617,0.025
	c-0.19,0-0.375-0.011-0.56-0.031c-0.18-0.021-0.36-0.052-0.535-0.098c-0.35-0.083-0.53-0.257-0.53-0.516
	c0-0.159,0.092-0.281,0.267-0.368c0.107-0.054,0.185-0.099,0.221-0.134c0.036-0.026,0.076-0.104,0.113-0.221l0.031-0.142
	l0.031-0.144l0.015-0.262v-0.318l0.026-0.756l-0.006-0.777l-0.005-0.256L34.22,141.2l-0.01-0.35c0-0.087-0.01-0.185-0.031-0.283
	c-0.02-0.099-0.046-0.164-0.087-0.201c-0.03-0.041-0.098-0.082-0.205-0.133c-0.102-0.052-0.18-0.103-0.231-0.145
	c-0.052-0.046-0.077-0.109-0.077-0.186c0-0.297,0.216-0.495,0.652-0.597c0.437-0.107,0.88-0.16,1.322-0.16
	c0.17,0,0.324,0.011,0.473,0.032c0.15,0.021,0.289,0.046,0.417,0.083c0.282,0.072,0.421,0.226,0.421,0.464
	c0,0.122-0.025,0.219-0.083,0.282c-0.056,0.065-0.149,0.14-0.273,0.211c-0.077,0.052-0.128,0.106-0.153,0.175
	c-0.01,0.036-0.016,0.088-0.021,0.149s-0.01,0.139-0.01,0.235v2.819c0,0.248,0.021,0.433,0.066,0.565
	c0.042,0.14,0.109,0.236,0.207,0.31c0.108,0.052,0.242,0.083,0.401,0.083c0.211,0,0.355-0.025,0.438-0.076
	c0.083-0.052,0.134-0.166,0.164-0.341c0.032-0.174,0.046-0.478,0.046-0.909v-1.92c0-0.438-0.015-0.715-0.041-0.844
	c-0.025-0.124-0.072-0.205-0.138-0.246l-0.067-0.035l-0.093-0.064l-0.092-0.08c-0.046-0.047-0.073-0.124-0.073-0.229
	c0-0.093,0.017-0.17,0.042-0.236c0.026-0.066,0.097-0.133,0.207-0.206c0.113-0.066,0.287-0.123,0.523-0.159
	c0.237-0.042,0.525-0.063,0.865-0.063c0.997,0,1.496,0.196,1.496,0.577c0,0.123-0.025,0.22-0.083,0.283
	c-0.057,0.065-0.144,0.14-0.273,0.211c-0.072,0.046-0.119,0.099-0.148,0.164c-0.021,0.063-0.037,0.196-0.037,0.396v2.819
	c0,0.248,0.026,0.433,0.066,0.567c0.041,0.139,0.114,0.236,0.207,0.309c0.113,0.051,0.243,0.083,0.401,0.083
	c0.195,0,0.34-0.03,0.428-0.083c0.086-0.051,0.144-0.17,0.174-0.35l0.031-0.354l0.015-0.541v-1.92c0-0.441-0.015-0.725-0.042-0.844
	c-0.025-0.124-0.071-0.205-0.139-0.246c-0.117-0.066-0.205-0.129-0.251-0.18c-0.051-0.047-0.078-0.124-0.078-0.229
	c0-0.093,0.02-0.17,0.051-0.236c0.026-0.071,0.092-0.138,0.201-0.2c0.102-0.061,0.272-0.118,0.509-0.159
	c0.236-0.042,0.53-0.067,0.879-0.067c1.049,0,1.574,0.211,1.574,0.627c0,0.19-0.083,0.33-0.252,0.416
	c-0.103,0.043-0.18,0.094-0.231,0.145c-0.041,0.057-0.078,0.186-0.103,0.391l-0.021,0.391l-0.01,0.572v2.305
	c0,0.133,0.015,0.242,0.051,0.313c0.036,0.078,0.109,0.15,0.221,0.217c0.107,0.055,0.185,0.107,0.236,0.154
	c0.041,0.051,0.067,0.124,0.067,0.221c0,0.164-0.109,0.319-0.319,0.453c-0.211,0.133-0.694,0.207-1.439,0.207h-0.427l-0.391-0.012
	l-0.894-0.042l-0.814-0.035L38.638,145.454z"/>
<path fill="#FFFFFF" d="M26.174,140.655c0.195-0.447,0.458-0.828,0.797-1.146c0.339-0.32,0.72-0.551,1.146-0.7
	c0.422-0.146,0.88-0.211,1.374-0.196c0.221,0.01,0.452,0.046,0.703,0.104c0.248,0.057,0.484,0.134,0.716,0.231
	c0.565,0.246,1.012,0.566,1.346,0.967c0.335,0.406,0.566,0.832,0.69,1.296c0.128,0.458,0.175,0.901,0.139,1.321
	c-0.031,0.424-0.114,0.789-0.241,1.097c-0.206,0.469-0.479,0.849-0.829,1.147c-0.345,0.299-0.74,0.52-1.182,0.658
	c-0.196,0.057-0.421,0.104-0.673,0.139c-0.207,0.031-0.442,0.037-0.71,0.021c-0.483-0.03-0.946-0.14-1.383-0.329
	c-0.452-0.195-0.837-0.451-1.167-0.781c-0.333-0.324-0.586-0.701-0.761-1.121c-0.175-0.422-0.263-0.865-0.256-1.334
	C25.882,141.561,25.984,141.104,26.174,140.655 M29.948,140.081c-0.227-0.1-0.447-0.078-0.659,0.056
	c-0.215,0.134-0.37,0.324-0.473,0.562c-0.083,0.185-0.155,0.451-0.226,0.807c-0.068,0.35-0.109,0.715-0.119,1.08
	c-0.01,0.371,0.026,0.699,0.119,0.988c0.087,0.287,0.246,0.479,0.472,0.576c0.243,0.107,0.474,0.092,0.679-0.031
	c0.211-0.123,0.371-0.313,0.484-0.575c0.134-0.313,0.242-0.72,0.318-1.216c0.078-0.493,0.078-0.955,0-1.393
	C30.461,140.501,30.262,140.213,29.948,140.081"/>
<path fill="#FFFFFF" d="M62.14,122.667c0.267-0.257,0.354-0.709,0.323-1.291c-0.031-0.576-0.467-1.033-0.797-1.611
	c0.072,0.767,0.094,1.672-0.093,2.068c-0.277,0.602-0.508,1.127-0.667,1.575c-0.474,0.94-0.248,2.479,1.177,2.808
	c2.267,0.391,3.872-1.882,1.604-5.739c-2.427-3.818,0.55-4.688,0.962-3.685c0.411,1.004-0.221,1.24-0.622,1.163
	c0.107,0.607,0.36,0.906,0.91,0.767c-0.2,0.287-0.477,0.792-0.267,1.507l0.597,1.379c-0.201-1.08,0.22-1.534,0.647-2.891
	c0.426-1.358,0.134-3.324-2.128-3.251c-2.273,0.068-2.16,3.328-0.128,6.671c1.223,2.712-1.172,3.503-1.631,2.355
	c-0.333-0.833,0.124-1.08,0.433-1.218c0.313-0.144,0.391-0.041,0.576-0.092C62.937,122.815,62.663,122.614,62.14,122.667"/>
<path fill="#FFFFFF" d="M48.741,139.416c0.375,0.021,0.761-0.226,1.161-0.642c0.396-0.422,0.433-1.055,0.627-1.687
	c-0.508,0.576-1.155,1.213-1.568,1.352c-0.627,0.207-1.172,0.401-1.604,0.587c-1.014,0.297-1.979,1.517-1.24,2.784
	c1.27,1.918,4.021,1.531,5.281-2.764c1.116-4.383,3.789-2.81,3.337-1.821c-0.447,0.982-1.055,0.684-1.27,0.345
	c-0.365,0.489-0.411,0.88,0.061,1.184c-0.34,0.056-0.9,0.195-1.274,0.838l-0.602,1.378c0.653-0.885,1.271-0.885,2.55-1.507
	c1.281-0.617,2.514-2.181,0.916-3.776c-1.609-1.609-3.908,0.705-4.948,4.474c-1.141,2.748-3.356,1.543-2.837,0.428
	c0.381-0.816,0.875-0.652,1.188-0.52c0.313,0.127,0.292,0.252,0.462,0.354C49.182,140.1,49.136,139.765,48.741,139.416"/>
<path fill="#FFFFFF" d="M59.815,101.504c-0.02-0.376-0.313-0.731-0.771-1.081c-0.462-0.35-1.095-0.313-1.748-0.442
	c0.632,0.447,1.337,1.019,1.522,1.415c0.277,0.597,0.53,1.117,0.761,1.528c0.411,0.972,1.727,1.795,2.904,0.921
	c1.765-1.477,1.076-4.172-3.336-4.943c-4.478-0.618-3.208-3.447-2.179-3.113c1.027,0.335,0.796,0.972,0.483,1.225
	c0.529,0.309,0.92,0.313,1.172-0.195c0.086,0.333,0.292,0.88,0.971,1.177l1.44,0.442c-0.956-0.55-1.022-1.162-1.784-2.366
	c-0.756-1.209-2.448-2.253-3.856-0.489c-1.415,1.78,1.141,3.806,4.997,4.419c2.859,0.822,1.913,3.163,0.746,2.773
	c-0.854-0.289-0.746-0.792-0.654-1.122c0.093-0.329,0.221-0.324,0.304-0.499C60.443,100.988,60.119,101.071,59.815,101.504"/>
<path fill="#FFFFFF" d="M42.818,87.871c-0.279-0.252-0.736-0.309-1.311-0.236c-0.571,0.071-0.998,0.54-1.553,0.904
	c0.761-0.124,1.666-0.206,2.072-0.051c0.617,0.236,1.157,0.433,1.609,0.561c0.971,0.411,2.494,0.087,2.726-1.364
	c0.236-2.289-2.14-3.735-5.835-1.214c-3.641,2.68-4.705-0.231-3.734-0.71c0.973-0.473,1.25,0.139,1.199,0.541
	c0.597-0.145,0.88-0.417,0.705-0.958c0.297,0.18,0.822,0.421,1.517,0.164l1.336-0.684c-1.063,0.268-1.542-0.124-2.926-0.458
	c-1.382-0.335-3.321,0.092-3.1,2.346c0.226,2.263,3.47,1.935,6.664-0.325c2.622-1.403,3.573,0.938,2.462,1.472
	c-0.813,0.391-1.085-0.051-1.249-0.35c-0.16-0.303-0.067-0.386-0.128-0.566C42.911,87.064,42.73,87.352,42.818,87.871"/>
<path fill="#FFFFFF" d="M59.435,129.065c-0.026,0.376-0.318,0.731-0.782,1.075c-0.467,0.345-1.095,0.304-1.748,0.422
	c0.632-0.438,1.342-1.004,1.527-1.395c0.289-0.596,0.54-1.115,0.782-1.522c0.416-0.967,1.742-1.78,2.911-0.895
	c1.752,1.49,1.032,4.181-3.379,4.912c-4.484,0.576-3.245,3.42-2.216,3.091c1.033-0.323,0.812-0.962,0.499-1.22
	c0.53-0.303,0.921-0.303,1.167,0.207c0.092-0.335,0.303-0.875,0.987-1.167l1.439-0.427c-0.956,0.541-1.033,1.152-1.805,2.351
	c-0.766,1.193-2.468,2.227-3.856,0.447c-1.403-1.79,1.172-3.796,5.039-4.373c2.864-0.797,1.938-3.142,0.766-2.762
	c-0.854,0.278-0.75,0.788-0.664,1.116c0.094,0.329,0.222,0.324,0.299,0.499C60.058,129.585,59.733,129.503,59.435,129.065"/>
<path fill="#FFFFFF" d="M62.34,107.886c0.247,0.284,0.293,0.741,0.206,1.317c-0.083,0.571-0.561,0.988-0.936,1.533
	c0.139-0.756,0.241-1.662,0.093-2.068c-0.221-0.627-0.406-1.172-0.519-1.625c-0.391-0.982-0.031-2.495,1.423-2.696
	c2.293-0.18,3.688,2.228,1.08,5.865c-2.761,3.58,0.124,4.712,0.622,3.755c0.499-0.962-0.107-1.255-0.513-1.213
	c0.159-0.597,0.442-0.87,0.971-0.685c-0.168-0.304-0.401-0.833-0.128-1.522l0.72-1.322c-0.298,1.06,0.083,1.548,0.386,2.937
	c0.304,1.396-0.17,3.322-2.412,3.05c-2.257-0.277-1.855-3.513,0.474-6.657c1.459-2.592-0.854-3.601-1.414-2.5
	c-0.407,0.802,0.025,1.09,0.324,1.26c0.297,0.165,0.38,0.073,0.565,0.145C63.147,107.815,62.86,107.985,62.34,107.886"/>
<path fill="#FFFFFF" d="M49.224,91.061c0.376-0.025,0.772,0.211,1.178,0.617c0.411,0.413,0.462,1.04,0.674,1.672
	c-0.525-0.566-1.188-1.188-1.605-1.313c-0.632-0.195-1.182-0.375-1.615-0.55c-1.023-0.272-2.02-1.466-1.311-2.752
	c1.224-1.951,3.984-1.631,5.348,2.633c1.223,4.353,3.856,2.712,3.382,1.74c-0.474-0.972-1.074-0.664-1.279-0.313
	c-0.381-0.485-0.438-0.87,0.03-1.19c-0.339-0.04-0.905-0.174-1.296-0.807l-0.632-1.362c0.673,0.868,1.291,0.858,2.587,1.444
	s2.565,2.12,1.007,3.755c-1.568,1.646-3.922-0.612-5.059-4.352c-1.204-2.722-3.394-1.467-2.844-0.361
	c0.401,0.809,0.885,0.634,1.198,0.495c0.313-0.139,0.289-0.262,0.453-0.366C49.651,90.365,49.615,90.7,49.224,91.061"/>
<path fill="#FFFFFF" d="M7.978,122.667c-0.268-0.257-0.354-0.709-0.324-1.291c0.03-0.576,0.467-1.033,0.796-1.611
	c-0.071,0.767-0.092,1.672,0.092,2.068c0.274,0.602,0.51,1.127,0.669,1.575c0.473,0.94,0.247,2.479-1.177,2.808
	c-2.267,0.391-3.872-1.882-1.605-5.739c2.427-3.818-0.55-4.688-0.961-3.685c-0.411,1.003,0.221,1.24,0.623,1.163
	c-0.109,0.607-0.36,0.906-0.91,0.767c0.195,0.287,0.478,0.792,0.266,1.507l-0.596,1.379c0.201-1.08-0.221-1.534-0.647-2.891
	c-0.427-1.358-0.134-3.324,2.128-3.251c2.273,0.068,2.159,3.328,0.128,6.671c-1.224,2.712,1.172,3.503,1.63,2.355
	c0.334-0.833-0.123-1.08-0.432-1.218c-0.313-0.144-0.391-0.041-0.576-0.092C7.181,122.815,7.454,122.614,7.978,122.667"/>
<path fill="#FFFFFF" d="M21.377,139.416c-0.375,0.021-0.767-0.226-1.163-0.642c-0.395-0.422-0.431-1.055-0.632-1.687
	c0.515,0.576,1.162,1.213,1.573,1.352c0.627,0.207,1.172,0.401,1.6,0.587c1.019,0.297,1.984,1.517,1.245,2.784
	c-1.271,1.918-4.026,1.531-5.281-2.764c-1.116-4.383-3.789-2.81-3.337-1.821c0.447,0.982,1.054,0.684,1.27,0.345
	c0.365,0.489,0.411,0.88-0.061,1.184c0.338,0.056,0.9,0.195,1.274,0.838l0.601,1.378c-0.652-0.885-1.27-0.885-2.549-1.507
	c-1.286-0.617-2.514-2.181-0.916-3.776c1.609-1.609,3.908,0.705,4.946,4.474c1.142,2.748,3.357,1.543,2.839,0.428
	c-0.381-0.816-0.875-0.652-1.188-0.52c-0.313,0.127-0.292,0.252-0.462,0.354C20.934,140.1,20.981,139.765,21.377,139.416"/>
<path fill="#FFFFFF" d="M10.303,101.504c0.02-0.376,0.313-0.731,0.771-1.081c0.462-0.35,1.095-0.313,1.744-0.442
	c-0.627,0.447-1.333,1.019-1.517,1.415c-0.277,0.597-0.53,1.117-0.761,1.528c-0.411,0.972-1.733,1.795-2.905,0.921
	c-1.764-1.477-1.075-4.172,3.336-4.943c4.479-0.618,3.209-3.447,2.181-3.113c-1.028,0.335-0.797,0.972-0.484,1.225
	c-0.528,0.309-0.919,0.313-1.172-0.195c-0.087,0.333-0.292,0.88-0.971,1.177l-1.439,0.442c0.956-0.55,1.022-1.162,1.783-2.366
	c0.756-1.209,2.448-2.253,3.856-0.489c1.415,1.78-1.141,3.806-4.997,4.419c-2.864,0.822-1.913,3.163-0.746,2.773
	c0.854-0.289,0.746-0.792,0.653-1.122c-0.092-0.329-0.221-0.324-0.303-0.499C9.675,100.988,9.999,101.071,10.303,101.504"/>
<path fill="#FFFFFF" d="M27.3,87.871c0.277-0.252,0.735-0.309,1.306-0.236c0.576,0.071,1.002,0.54,1.559,0.904
	c-0.761-0.124-1.666-0.206-2.072-0.051c-0.617,0.236-1.157,0.433-1.609,0.561c-0.978,0.411-2.495,0.087-2.726-1.364
	c-0.236-2.289,2.139-3.735,5.835-1.214c3.641,2.68,4.705-0.231,3.733-0.71c-0.971-0.473-1.25,0.139-1.197,0.541
	c-0.597-0.145-0.88-0.417-0.705-0.958c-0.299,0.18-0.822,0.421-1.517,0.164l-1.342-0.684c1.07,0.268,1.543-0.124,2.925-0.458
	c1.389-0.335,3.328,0.092,3.105,2.346c-0.226,2.263-3.47,1.935-6.663-0.325c-2.622-1.403-3.573,0.938-2.463,1.472
	c0.813,0.391,1.086-0.051,1.25-0.35c0.16-0.303,0.067-0.386,0.128-0.566C27.207,87.064,27.388,87.352,27.3,87.871"/>
<path fill="#FFFFFF" d="M10.682,129.065c0.026,0.376,0.319,0.731,0.781,1.075c0.463,0.345,1.096,0.304,1.75,0.422
	c-0.634-0.438-1.342-1.004-1.534-1.395c-0.282-0.596-0.54-1.115-0.776-1.522c-0.421-0.967-1.743-1.78-2.911-0.895
	c-1.753,1.49-1.033,4.181,3.379,4.912c4.482,0.576,3.244,3.42,2.215,3.091c-1.033-0.323-0.812-0.962-0.499-1.22
	c-0.53-0.303-0.926-0.303-1.167,0.207c-0.092-0.335-0.304-0.875-0.987-1.167l-1.439-0.427c0.956,0.541,1.033,1.152,1.805,2.351
	c0.766,1.193,2.468,2.227,3.856,0.447c1.403-1.79-1.173-3.796-5.04-4.373c-2.863-0.797-1.938-3.142-0.766-2.762
	c0.854,0.278,0.751,0.788,0.664,1.116c-0.092,0.329-0.221,0.324-0.299,0.499C10.06,129.585,10.384,129.503,10.682,129.065"/>
<path fill="#FFFFFF" d="M7.777,107.886c-0.246,0.284-0.292,0.741-0.205,1.317c0.083,0.571,0.56,0.988,0.936,1.533
	c-0.14-0.756-0.243-1.662-0.092-2.068c0.221-0.627,0.401-1.172,0.519-1.625c0.391-0.982,0.026-2.495-1.425-2.696
	c-2.293-0.18-3.686,2.228-1.08,5.865c2.762,3.58-0.123,4.712-0.622,3.755c-0.499-0.962,0.108-1.255,0.515-1.213
	c-0.165-0.597-0.442-0.87-0.972-0.685c0.17-0.304,0.401-0.833,0.124-1.522l-0.714-1.322c0.299,1.06-0.083,1.548-0.385,2.937
	c-0.304,1.396,0.17,3.322,2.41,3.05c2.258-0.277,1.852-3.513-0.472-6.657c-1.466-2.592,0.854-3.601,1.413-2.5
	c0.406,0.802-0.025,1.09-0.324,1.26c-0.297,0.165-0.381,0.073-0.565,0.145C6.971,107.815,7.258,107.985,7.777,107.886"/>
<path fill="#FFFFFF" d="M20.893,91.061c-0.375-0.025-0.771,0.211-1.177,0.617c-0.411,0.413-0.462,1.04-0.673,1.672
	c0.525-0.566,1.188-1.188,1.604-1.313c0.633-0.195,1.177-0.375,1.615-0.55c1.023-0.272,2.016-1.466,1.311-2.752
	c-1.224-1.951-3.985-1.631-5.348,2.633c-1.223,4.353-3.856,2.712-3.382,1.74c0.473-0.972,1.07-0.664,1.28-0.313
	c0.381-0.485,0.437-0.87-0.03-1.19c0.339-0.04,0.905-0.174,1.294-0.807l0.633-1.362c-0.674,0.868-1.291,0.858-2.586,1.444
	s-2.566,2.12-1.008,3.755c1.568,1.646,3.924-0.612,5.06-4.352c1.204-2.722,3.394-1.467,2.843-0.361
	c-0.399,0.809-0.888,0.634-1.197,0.495c-0.313-0.139-0.289-0.262-0.453-0.366C20.467,90.365,20.503,90.7,20.893,91.061"/>
<path fill="#FFFFFF" d="M35.059,84.471c0.333,0,0.601-0.268,0.601-0.603c0-0.333-0.268-0.601-0.601-0.601
	c-0.335,0-0.601,0.268-0.601,0.601C34.458,84.203,34.724,84.471,35.059,84.471"/>
<path fill="none" stroke="#FFFFFF" stroke-width="0.5" stroke-miterlimit="10" d="M35.059,90.34
	c13.532,0,24.577,11.044,24.577,24.589c0,10.401-6.52,19.332-15.677,22.912c-1.625-3.097-5.481-5.006-9.188-5.006
	c-4.066,0-7.748,1.806-9.183,4.775c-0.015-0.006-0.025-0.012-0.036-0.012c-8.839-3.734-15.069-12.495-15.069-22.669
	C10.482,101.385,21.52,90.34,35.059,90.34z"/>
<path fill="#FFFFFF" d="M53.688,115.434l-1.594-0.2l-0.601-0.849l-0.997-1.096l-0.35-0.401l-1.841-1.147l-1.347-1.2l-1.548-0.194
	l-0.2,8.627l-1.147-0.299l-1.846-4.64l-1.542-0.35l-0.304-1.147c-2.741-0.612-5.398-0.813-7.876-0.499l-0.946,6.887l-0.797-0.051
	l-2.493-5.287l-0.551-4.893l-1.846,0.699l-0.55,0.752l-0.695,0.046l-6.334,3.297l-0.847,3.441h-1.297l-2.925,6.451
	c2.694,6.379,6.844,10.983,12.026,12.738c3.713-5.536,14.407-5.885,19.014,0.071c6.293-2.85,10.668-7.176,12.725-13.271
	L53.688,115.434z M36.94,128.741c-0.761-0.818-1.589-0.865-1.974,0.329C34.534,127.255,36.873,126.508,36.94,128.741z
	 M34.904,124.693c0.226,0.494,0.452,0.978,0.468,1.539c0.015,0.458-0.231,0.802-0.457,1.111c-0.345-0.324-0.499-0.632-0.458-1.111
	S34.668,125.203,34.904,124.693z M34.858,129.07c-0.385-1.194-1.213-1.147-1.974-0.329C32.951,126.508,35.29,127.255,34.858,129.07z
	 M34.503,130.99c-0.694,0.767-1.573,0.541-2.642-0.058c-0.53,0.535-1.106,0.809-1.743,0.757l-0.005,0.005
	c-0.643-0.067-1.157-0.263-1.445-0.763c-0.535,0.535-1.116,0.809-1.758,0.757l0.01-0.201l-0.017,0.207
	c-0.647-0.067-1.162-0.263-1.45-0.763c-0.535,0.535-1.111,0.809-1.758,0.757l-0.026,0.005c-0.647-0.067-1.162-0.262-1.45-0.763
	c-0.53,0.535-1.111,0.809-1.748,0.757v0.005c-0.647-0.067-1.162-0.262-1.45-0.763c-0.077,0.226-0.124,0.35-0.406,0.469
	c-0.438-0.247-0.822-0.535-1.085-0.911c0.833,0,1.105,0.011,0.652-0.714c-0.226,0.098-0.591,0.376-0.89,0.032
	c-0.256-0.545,0.741-1.086,1.26-0.674c1.096,0.869,1.069,1.738,1.949,1.609c0.01,0,0.025-0.005,0.041-0.005l-0.005,0.005
	c0.806-0.01,1.285-0.252,0.837-0.967c-0.227,0.097-0.591,0.376-0.89,0.031c-0.251-0.545,0.766-1.106,1.266-0.673
	c1.023,0.895,0.992,1.62,1.984,1.614v-0.005c0.827,0,1.332-0.241,0.874-0.967c-0.221,0.098-0.591,0.376-0.884,0.032
	c-0.257-0.545,0.74-1.086,1.26-0.674c1.054,0.839,1.002,1.785,2.087,1.744v0.005c0.812-0.005,1.204-0.386,0.751-1.106
	c-0.226,0.097-0.591,0.376-0.89,0.031c-0.252-0.545,0.705-1.03,1.265-0.673c1.363,0.871,1.234,1.464,1.943,1.607
	c0.016,0,0.026-0.005,0.041-0.005v0.005c0.807-0.01,1.286-0.252,0.838-0.967c-0.226,0.097-0.591,0.376-0.89,0.031
	c-0.257-0.545,0.741-1.086,1.26-0.673c1.116,0.885,1.327,1.794,2.247,1.548c0.51-0.35,0.705-0.695,0.206-1.025
	c-0.282,0.401-0.55,0.49-0.833,0.232c-0.227-0.51,0.401-0.88,0.982-0.767C34.925,129.298,35.193,130.218,34.503,130.99z
	 M52.488,129.809c-0.299,0.344-0.664,0.066-0.89-0.032c-0.453,0.726-0.18,0.714,0.653,0.714c-0.267,0.376-0.649,0.664-1.084,0.911
	c-0.289-0.119-0.33-0.243-0.407-0.469c-0.288,0.5-0.801,0.695-1.45,0.763v-0.005c-0.643,0.051-1.218-0.222-1.749-0.757
	c-0.287,0.5-0.802,0.695-1.449,0.763l-0.031-0.005c-0.642,0.051-1.219-0.222-1.753-0.757c-0.287,0.5-0.801,0.695-1.45,0.763
	l-0.015-0.207l0.01,0.201c-0.644,0.051-1.224-0.222-1.758-0.757c-0.289,0.5-0.802,0.695-1.451,0.763v-0.005
	c-0.637,0.051-1.213-0.222-1.742-0.757c-1.07,0.598-1.95,0.824-2.644,0.058c-0.689-0.772-0.422-1.693,0.509-1.868
	c0.576-0.113,1.208,0.257,0.982,0.767c-0.282,0.257-0.55,0.169-0.833-0.232c-0.498,0.33-0.302,0.675,0.207,1.025
	c0.92,0.246,1.131-0.664,2.247-1.548c0.52-0.413,1.518,0.128,1.26,0.673c-0.298,0.345-0.664,0.066-0.89-0.031
	c-0.448,0.714,0.031,0.957,0.838,0.967v-0.005c0.015,0,0.026,0.005,0.042,0.005c0.705-0.144,0.581-0.736,1.942-1.607
	c0.561-0.356,1.517,0.128,1.265,0.673c-0.297,0.345-0.662,0.066-0.888-0.031c-0.454,0.72-0.063,1.101,0.75,1.106v-0.005
	c1.085,0.041,1.034-0.905,2.088-1.744c0.519-0.413,1.517,0.129,1.259,0.674c-0.298,0.345-0.663,0.066-0.884-0.032
	c-0.458,0.726,0.041,0.967,0.875,0.967v0.005c0.992,0.005,0.961-0.72,1.984-1.614c0.499-0.433,1.516,0.128,1.265,0.673
	c-0.298,0.345-0.663,0.066-0.889-0.031c-0.448,0.714,0.031,0.957,0.833,0.967v-0.005c0.015,0,0.03,0.005,0.04,0.005
	c0.88,0.129,0.854-0.741,1.95-1.609C51.742,128.721,52.746,129.263,52.488,129.809z"/>
<path fill="none" stroke="#E5AE70" stroke-width="0.029" stroke-miterlimit="10" d="M34.961,99.184c1.476,0,2.678-1.204,2.678-2.681
	c0-1.471-1.202-2.674-2.678-2.674c-1.476,0-2.679,1.204-2.679,2.674C32.282,97.979,33.486,99.184,34.961,99.184z"/>
<path fill="#FFFFFF" d="M34.961,99.184c1.476,0,2.678-1.204,2.678-2.681c0-1.471-1.202-2.674-2.678-2.674
	c-1.476,0-2.679,1.204-2.679,2.674C32.282,97.979,33.486,99.184,34.961,99.184"/>
<path fill="#FFFFFF" d="M39.542,92.156l-2.545,2.588"/>
<path fill="#FFFFFF" d="M43.404,93.329l-5.872,2.489"/>
<path fill="#FFFFFF" d="M37.121,91.801l-0.997,2.187"/>
<path fill="#FFFFFF" d="M37.393,97.517l19.636,9.527"/>
<path fill="#FFFFFF" d="M36.72,98.566l9.794,11.034"/>
<path fill="#FFFFFF" d="M35.727,99.121l4.92,12.743"/>
<path fill="#FFFFFF" d="M30.38,92.156l2.544,2.588"/>
<path fill="#FFFFFF" d="M26.524,93.329l5.866,2.489"/>
<path fill="#FFFFFF" d="M32.802,91.801l0.997,2.187"/>
<path fill="#FFFFFF" d="M32.53,97.517l-19.637,9.527"/>
<path fill="#FFFFFF" d="M33.208,98.566l-9.801,11.034"/>
<path fill="#FFFFFF" d="M34.196,99.121l-4.917,12.743"/>
<path fill="none" stroke="#FFFFFF" stroke-width="0.147" stroke-miterlimit="10" d="M35.059,91.544
	c13.089,0.051,23.383,11.287,23.317,22.81c-0.072,11.522-5.984,17.881-14.119,21.964c-1.537-2.926-5.969-4.506-9.471-4.506
	c-3.841,0-8.144,1.472-9.502,4.28c-5.563-1.481-14.021-10.833-13.734-21.213C11.917,101.668,21.968,91.492,35.059,91.544z"/>
<path fill="none" d="M57.332,121.591l-3.034-6.929l-1.768-0.277l-1.707-2.331l-1.816-0.823l-1.428-1.383l-2.973-0.268l-0.107,7.623
	c-0.576-1.177-1.084-2.428-1.522-3.75c-0.53-0.123-1.06-0.251-1.588-0.38l-0.191-0.988c-2.771-0.786-5.676-1.255-9.146-0.915
	c-0.797,1.913-0.807,4.181-1.08,6.173l-1.909-3.761l-0.446-6.003c-1.605,0.304-3.009,0.654-3.683,1.621l-1.588,0.824l-5.527,2.797
	l-0.951,3.37H15.66l-2.669,6.23"/>
</svg>
