<?xml version="1.0" encoding="utf-8"?>
<!-- Generator: Adobe Illustrator 19.1.0, SVG Export Plug-In . SVG Version: 6.00 Build 0)  -->
<svg version="1.1" id="Layer_1" xmlns="http://www.w3.org/2000/svg" xmlns:xlink="http://www.w3.org/1999/xlink" x="0px" y="0px"
	 width="283px" height="283px" viewBox="-164 255 283 283" style="enable-background:new -164 255 283 283;" xml:space="preserve">
<style type="text/css">
	.st0{fill:none;stroke:#0066B3;stroke-width:0.5;stroke-miterlimit:10;}
	.st1{fill:none;stroke:#0066B3;stroke-width:0.45;stroke-miterlimit:10;}
	.st2{fill:#0066B3;}
	.st3{fill:#FFFFFF;}
	.st4{fill:none;stroke:#FFFFFF;stroke-width:0.2;stroke-miterlimit:10;}
	.st5{fill:#FFCB05;}
	.st6{fill:none;stroke:#E5AE70;stroke-width:2.900000e-002;stroke-miterlimit:10;}
	.st7{fill:none;stroke:#FFCB05;stroke-width:0.4;stroke-miterlimit:10;}
	.st8{fill:none;stroke:#FFCB05;stroke-width:0.35;stroke-miterlimit:10;}
	.st9{fill:none;stroke:#FFCB05;stroke-width:0.5;stroke-miterlimit:10;}
	.st10{fill:none;stroke:#426787;stroke-width:0.2;stroke-miterlimit:10;}
	.st11{fill:none;stroke:#FFFFFF;stroke-width:0.5;stroke-miterlimit:10;}
	.st12{fill:none;stroke:#FFFFFF;stroke-width:0.147;stroke-miterlimit:10;}
	.st13{fill:none;}
</style>
<path class="st0" d="M-128.9,324.8c19.2,0,34.8-15.6,34.8-34.8c0-19.2-15.6-34.8-34.8-34.8s-34.8,15.6-34.8,34.8
	C-163.8,309.1-148.1,324.8-128.9,324.8z"/>
<path class="st1" d="M-128.9,323.4c18.5,0,33.5-15.1,33.5-33.5s-15-33.5-33.5-33.5s-33.5,15.1-33.5,33.5S-147.4,323.4-128.9,323.4z"
	/>
<path class="st2" d="M-125.4,320.5l-0.6,0h-0.5l-1.2,0.1l-0.3,0l-0.3,0l-0.6,0c-0.2,0-0.4,0-0.6,0c-0.2,0-0.4-0.1-0.5-0.1
	c-0.3-0.1-0.5-0.3-0.5-0.5c0-0.2,0.1-0.3,0.3-0.4c0.1-0.1,0.2-0.1,0.2-0.1c0,0,0.1-0.1,0.1-0.2l0-0.1l0-0.1l0-0.3v-0.3l0-0.8l0-0.8
	l0-0.3l0-0.3l0-0.4c0-0.1,0-0.2,0-0.3c0-0.1,0-0.2-0.1-0.2c0,0-0.1-0.1-0.2-0.1c-0.1-0.1-0.2-0.1-0.2-0.1c-0.1,0-0.1-0.1-0.1-0.2
	c0-0.3,0.2-0.5,0.7-0.6c0.4-0.1,0.9-0.2,1.3-0.2c0.2,0,0.3,0,0.5,0c0.2,0,0.3,0,0.4,0.1c0.3,0.1,0.4,0.2,0.4,0.5
	c0,0.1,0,0.2-0.1,0.3c-0.1,0.1-0.1,0.1-0.3,0.2c-0.1,0.1-0.1,0.1-0.2,0.2c0,0,0,0.1,0,0.1c0,0.1,0,0.1,0,0.2v2.8
	c0,0.2,0,0.4,0.1,0.6c0,0.1,0.1,0.2,0.2,0.3c0.1,0.1,0.2,0.1,0.4,0.1c0.2,0,0.4,0,0.4-0.1c0.1-0.1,0.1-0.2,0.2-0.3
	c0-0.2,0-0.5,0-0.9v-1.9c0-0.4,0-0.7,0-0.8c0-0.1-0.1-0.2-0.1-0.2l-0.1,0l-0.1-0.1l-0.1-0.1c0,0-0.1-0.1-0.1-0.2c0-0.1,0-0.2,0-0.2
	c0-0.1,0.1-0.1,0.2-0.2c0.1-0.1,0.3-0.1,0.5-0.2c0.2,0,0.5-0.1,0.9-0.1c1,0,1.5,0.2,1.5,0.6c0,0.1,0,0.2-0.1,0.3
	c-0.1,0.1-0.1,0.1-0.3,0.2c-0.1,0-0.1,0.1-0.1,0.2c0,0.1,0,0.2,0,0.4v2.8c0,0.2,0,0.4,0.1,0.6c0,0.1,0.1,0.2,0.2,0.3
	c0.1,0.1,0.2,0.1,0.4,0.1c0.2,0,0.3,0,0.4-0.1c0.1-0.1,0.1-0.2,0.2-0.3l0-0.4l0-0.5v-1.9c0-0.4,0-0.7,0-0.8c0-0.1-0.1-0.2-0.1-0.2
	c-0.1-0.1-0.2-0.1-0.3-0.2c-0.1,0-0.1-0.1-0.1-0.2c0-0.1,0-0.2,0.1-0.2c0-0.1,0.1-0.1,0.2-0.2c0.1-0.1,0.3-0.1,0.5-0.2
	c0.2,0,0.5-0.1,0.9-0.1c1,0,1.6,0.2,1.6,0.6c0,0.2-0.1,0.3-0.3,0.4c-0.1,0-0.2,0.1-0.2,0.1c0,0.1-0.1,0.2-0.1,0.4l0,0.4l0,0.6v2.3
	c0,0.1,0,0.2,0.1,0.3c0,0.1,0.1,0.1,0.2,0.2c0.1,0.1,0.2,0.1,0.2,0.2c0,0.1,0.1,0.1,0.1,0.2c0,0.2-0.1,0.3-0.3,0.5
	c-0.2,0.1-0.7,0.2-1.4,0.2h-0.4l-0.4,0l-0.9,0l-0.8,0L-125.4,320.5z"/>
<path class="st2" d="M-137.8,315.7c0.2-0.4,0.5-0.8,0.8-1.1c0.3-0.3,0.7-0.6,1.1-0.7c0.4-0.1,0.9-0.2,1.4-0.2c0.2,0,0.5,0,0.7,0.1
	c0.2,0.1,0.5,0.1,0.7,0.2c0.6,0.2,1,0.6,1.3,1c0.3,0.4,0.6,0.8,0.7,1.3c0.1,0.5,0.2,0.9,0.1,1.3c0,0.4-0.1,0.8-0.2,1.1
	c-0.2,0.5-0.5,0.8-0.8,1.1c-0.3,0.3-0.7,0.5-1.2,0.7c-0.2,0.1-0.4,0.1-0.7,0.1c-0.2,0-0.4,0-0.7,0c-0.5,0-0.9-0.1-1.4-0.3
	c-0.5-0.2-0.8-0.5-1.2-0.8c-0.3-0.3-0.6-0.7-0.8-1.1c-0.2-0.4-0.3-0.9-0.3-1.3C-138.1,316.6-138,316.1-137.8,315.7 M-134.1,315.1
	c-0.2-0.1-0.4-0.1-0.7,0.1c-0.2,0.1-0.4,0.3-0.5,0.6c-0.1,0.2-0.2,0.5-0.2,0.8c-0.1,0.3-0.1,0.7-0.1,1.1c0,0.4,0,0.7,0.1,1
	c0.1,0.3,0.2,0.5,0.5,0.6c0.2,0.1,0.5,0.1,0.7,0c0.2-0.1,0.4-0.3,0.5-0.6c0.1-0.3,0.2-0.7,0.3-1.2c0.1-0.5,0.1-1,0-1.4
	C-133.5,315.5-133.7,315.2-134.1,315.1"/>
<path class="st2" d="M-101.9,297.7c0.3-0.3,0.4-0.7,0.3-1.3c0-0.6-0.5-1-0.8-1.6c0.1,0.8,0.1,1.7-0.1,2.1c-0.3,0.6-0.5,1.1-0.7,1.6
	c-0.5,0.9-0.2,2.5,1.2,2.8c2.3,0.4,3.9-1.9,1.6-5.7c-2.4-3.8,0.6-4.7,1-3.7c0.4,1-0.2,1.2-0.6,1.2c0.1,0.6,0.4,0.9,0.9,0.8
	c-0.2,0.3-0.5,0.8-0.3,1.5l0.6,1.4c-0.2-1.1,0.2-1.5,0.6-2.9c0.4-1.4,0.1-3.3-2.1-3.3c-2.3,0.1-2.2,3.3-0.1,6.7
	c1.2,2.7-1.2,3.5-1.6,2.4c-0.3-0.8,0.1-1.1,0.4-1.2c0.3-0.1,0.4,0,0.6-0.1C-101.1,297.8-101.3,297.6-101.9,297.7"/>
<path class="st2" d="M-115.3,314.4c0.4,0,0.8-0.2,1.2-0.6c0.4-0.4,0.4-1.1,0.6-1.7c-0.5,0.6-1.2,1.2-1.6,1.4
	c-0.6,0.2-1.2,0.4-1.6,0.6c-1,0.3-2,1.5-1.2,2.8c1.3,1.9,4,1.5,5.3-2.8c1.1-4.4,3.8-2.8,3.3-1.8c-0.4,1-1.1,0.7-1.3,0.3
	c-0.4,0.5-0.4,0.9,0.1,1.2c-0.3,0.1-0.9,0.2-1.3,0.8l-0.6,1.4c0.7-0.9,1.3-0.9,2.6-1.5c1.3-0.6,2.5-2.2,0.9-3.8
	c-1.6-1.6-3.9,0.7-4.9,4.5c-1.1,2.7-3.4,1.5-2.8,0.4c0.4-0.8,0.9-0.7,1.2-0.5c0.3,0.1,0.3,0.3,0.5,0.4
	C-114.8,315.1-114.9,314.8-115.3,314.4"/>
<path class="st2" d="M-104.2,276.5c0-0.4-0.3-0.7-0.8-1.1c-0.5-0.3-1.1-0.3-1.7-0.4c0.6,0.4,1.3,1,1.5,1.4c0.3,0.6,0.5,1.1,0.8,1.5
	c0.4,1,1.7,1.8,2.9,0.9c1.8-1.5,1.1-4.2-3.3-4.9c-4.5-0.6-3.2-3.4-2.2-3.1c1,0.3,0.8,1,0.5,1.2c0.5,0.3,0.9,0.3,1.2-0.2
	c0.1,0.3,0.3,0.9,1,1.2l1.4,0.4c-1-0.6-1-1.2-1.8-2.4c-0.8-1.2-2.4-2.3-3.9-0.5c-1.4,1.8,1.1,3.8,5,4.4c2.9,0.8,1.9,3.2,0.7,2.8
	c-0.9-0.3-0.7-0.8-0.7-1.1c0.1-0.3,0.2-0.3,0.3-0.5C-103.6,276-103.9,276.1-104.2,276.5"/>
<path class="st2" d="M-121.2,262.9c-0.3-0.3-0.7-0.3-1.3-0.2c-0.6,0.1-1,0.5-1.6,0.9c0.8-0.1,1.7-0.2,2.1-0.1
	c0.6,0.2,1.2,0.4,1.6,0.6c1,0.4,2.5,0.1,2.7-1.4c0.2-2.3-2.1-3.7-5.8-1.2c-3.6,2.7-4.7-0.2-3.7-0.7c1-0.5,1.3,0.1,1.2,0.5
	c0.6-0.1,0.9-0.4,0.7-1c0.3,0.2,0.8,0.4,1.5,0.2l1.3-0.7c-1.1,0.3-1.5-0.1-2.9-0.5c-1.4-0.3-3.3,0.1-3.1,2.3
	c0.2,2.3,3.5,1.9,6.7-0.3c2.6-1.4,3.6,0.9,2.5,1.5c-0.8,0.4-1.1-0.1-1.2-0.4c-0.2-0.3-0.1-0.4-0.1-0.6
	C-121.1,262.1-121.3,262.4-121.2,262.9"/>
<path class="st2" d="M-104.6,304.1c0,0.4-0.3,0.7-0.8,1.1c-0.5,0.3-1.1,0.3-1.7,0.4c0.6-0.4,1.3-1,1.5-1.4c0.3-0.6,0.5-1.1,0.8-1.5
	c0.4-1,1.7-1.8,2.9-0.9c1.8,1.5,1,4.2-3.4,4.9c-4.5,0.6-3.2,3.4-2.2,3.1c1-0.3,0.8-1,0.5-1.2c0.5-0.3,0.9-0.3,1.2,0.2
	c0.1-0.3,0.3-0.9,1-1.2l1.4-0.4c-1,0.5-1,1.2-1.8,2.4c-0.8,1.2-2.5,2.2-3.9,0.4c-1.4-1.8,1.2-3.8,5-4.4c2.9-0.8,1.9-3.1,0.8-2.8
	c-0.9,0.3-0.8,0.8-0.7,1.1c0.1,0.3,0.2,0.3,0.3,0.5C-103.9,304.6-104.3,304.5-104.6,304.1"/>
<path class="st2" d="M-101.7,282.9c0.2,0.3,0.3,0.7,0.2,1.3c-0.1,0.6-0.6,1-0.9,1.5c0.1-0.8,0.2-1.7,0.1-2.1
	c-0.2-0.6-0.4-1.2-0.5-1.6c-0.4-1,0-2.5,1.4-2.7c2.3-0.2,3.7,2.2,1.1,5.9c-2.8,3.6,0.1,4.7,0.6,3.8c0.5-1-0.1-1.3-0.5-1.2
	c0.2-0.6,0.4-0.9,1-0.7c-0.2-0.3-0.4-0.8-0.1-1.5l0.7-1.3c-0.3,1.1,0.1,1.5,0.4,2.9c0.3,1.4-0.2,3.3-2.4,3c-2.3-0.3-1.9-3.5,0.5-6.7
	c1.5-2.6-0.9-3.6-1.4-2.5c-0.4,0.8,0,1.1,0.3,1.3c0.3,0.2,0.4,0.1,0.6,0.1C-100.9,282.8-101.1,283-101.7,282.9"/>
<path class="st2" d="M-114.8,266.1c0.4,0,0.8,0.2,1.2,0.6c0.4,0.4,0.5,1,0.7,1.7c-0.5-0.6-1.2-1.2-1.6-1.3c-0.6-0.2-1.2-0.4-1.6-0.5
	c-1-0.3-2-1.5-1.3-2.8c1.2-2,4-1.6,5.3,2.6c1.2,4.4,3.9,2.7,3.4,1.7c-0.5-1-1.1-0.7-1.3-0.3c-0.4-0.5-0.4-0.9,0-1.2
	c-0.3,0-0.9-0.2-1.3-0.8l-0.6-1.4c0.7,0.9,1.3,0.9,2.6,1.4s2.6,2.1,1,3.8c-1.6,1.6-3.9-0.6-5.1-4.4c-1.2-2.7-3.4-1.5-2.8-0.4
	c0.4,0.8,0.9,0.6,1.2,0.5s0.3-0.3,0.5-0.4C-114.3,265.4-114.4,265.7-114.8,266.1"/>
<path class="st2" d="M-156,297.7c-0.3-0.3-0.4-0.7-0.3-1.3c0-0.6,0.5-1,0.8-1.6c-0.1,0.8-0.1,1.7,0.1,2.1c0.3,0.6,0.5,1.1,0.7,1.6
	c0.5,0.9,0.2,2.5-1.2,2.8c-2.3,0.4-3.9-1.9-1.6-5.7c2.4-3.8-0.6-4.7-1-3.7s0.2,1.2,0.6,1.2c-0.1,0.6-0.4,0.9-0.9,0.8
	c0.2,0.3,0.5,0.8,0.3,1.5l-0.6,1.4c0.2-1.1-0.2-1.5-0.6-2.9c-0.4-1.4-0.1-3.3,2.1-3.3c2.3,0.1,2.2,3.3,0.1,6.7
	c-1.2,2.7,1.2,3.5,1.6,2.4c0.3-0.8-0.1-1.1-0.4-1.2c-0.3-0.1-0.4,0-0.6-0.1C-156.8,297.8-156.5,297.6-156,297.7"/>
<path class="st2" d="M-142.6,314.4c-0.4,0-0.8-0.2-1.2-0.6c-0.4-0.4-0.4-1.1-0.6-1.7c0.5,0.6,1.2,1.2,1.6,1.4
	c0.6,0.2,1.2,0.4,1.6,0.6c1,0.3,2,1.5,1.2,2.8c-1.3,1.9-4,1.5-5.3-2.8c-1.1-4.4-3.8-2.8-3.3-1.8c0.4,1,1.1,0.7,1.3,0.3
	c0.4,0.5,0.4,0.9-0.1,1.2c0.3,0.1,0.9,0.2,1.3,0.8l0.6,1.4c-0.7-0.9-1.3-0.9-2.5-1.5c-1.3-0.6-2.5-2.2-0.9-3.8
	c1.6-1.6,3.9,0.7,4.9,4.5c1.1,2.7,3.4,1.5,2.8,0.4c-0.4-0.8-0.9-0.7-1.2-0.5c-0.3,0.1-0.3,0.3-0.5,0.4
	C-143.1,315.1-143,314.8-142.6,314.4"/>
<path class="st2" d="M-153.7,276.5c0-0.4,0.3-0.7,0.8-1.1c0.5-0.3,1.1-0.3,1.7-0.4c-0.6,0.4-1.3,1-1.5,1.4c-0.3,0.6-0.5,1.1-0.8,1.5
	c-0.4,1-1.7,1.8-2.9,0.9c-1.8-1.5-1.1-4.2,3.3-4.9c4.5-0.6,3.2-3.4,2.2-3.1c-1,0.3-0.8,1-0.5,1.2c-0.5,0.3-0.9,0.3-1.2-0.2
	c-0.1,0.3-0.3,0.9-1,1.2l-1.4,0.4c1-0.6,1-1.2,1.8-2.4c0.8-1.2,2.4-2.3,3.9-0.5c1.4,1.8-1.1,3.8-5,4.4c-2.9,0.8-1.9,3.2-0.7,2.8
	c0.9-0.3,0.7-0.8,0.7-1.1c-0.1-0.3-0.2-0.3-0.3-0.5C-154.3,276-154,276.1-153.7,276.5"/>
<path class="st2" d="M-136.7,262.9c0.3-0.3,0.7-0.3,1.3-0.2c0.6,0.1,1,0.5,1.6,0.9c-0.8-0.1-1.7-0.2-2.1-0.1
	c-0.6,0.2-1.2,0.4-1.6,0.6c-1,0.4-2.5,0.1-2.7-1.4c-0.2-2.3,2.1-3.7,5.8-1.2c3.6,2.7,4.7-0.2,3.7-0.7c-1-0.5-1.3,0.1-1.2,0.5
	c-0.6-0.1-0.9-0.4-0.7-1c-0.3,0.2-0.8,0.4-1.5,0.2l-1.3-0.7c1.1,0.3,1.5-0.1,2.9-0.5c1.4-0.3,3.3,0.1,3.1,2.3
	c-0.2,2.3-3.5,1.9-6.7-0.3c-2.6-1.4-3.6,0.9-2.5,1.5c0.8,0.4,1.1-0.1,1.3-0.4c0.2-0.3,0.1-0.4,0.1-0.6
	C-136.8,262.1-136.6,262.4-136.7,262.9"/>
<path class="st2" d="M-153.3,304.1c0,0.4,0.3,0.7,0.8,1.1c0.5,0.3,1.1,0.3,1.8,0.4c-0.6-0.4-1.3-1-1.5-1.4c-0.3-0.6-0.5-1.1-0.8-1.5
	c-0.4-1-1.7-1.8-2.9-0.9c-1.8,1.5-1,4.2,3.4,4.9c4.5,0.6,3.2,3.4,2.2,3.1c-1-0.3-0.8-1-0.5-1.2c-0.5-0.3-0.9-0.3-1.2,0.2
	c-0.1-0.3-0.3-0.9-1-1.2l-1.4-0.4c1,0.5,1,1.2,1.8,2.4c0.8,1.2,2.5,2.2,3.9,0.4c1.4-1.8-1.2-3.8-5-4.4c-2.9-0.8-1.9-3.1-0.8-2.8
	c0.9,0.3,0.8,0.8,0.7,1.1c-0.1,0.3-0.2,0.3-0.3,0.5C-153.9,304.6-153.6,304.5-153.3,304.1"/>
<path class="st2" d="M-156.2,282.9c-0.2,0.3-0.3,0.7-0.2,1.3c0.1,0.6,0.6,1,0.9,1.5c-0.1-0.8-0.2-1.7-0.1-2.1
	c0.2-0.6,0.4-1.2,0.5-1.6c0.4-1,0-2.5-1.4-2.7c-2.3-0.2-3.7,2.2-1.1,5.9c2.8,3.6-0.1,4.7-0.6,3.8c-0.5-1,0.1-1.3,0.5-1.2
	c-0.2-0.6-0.4-0.9-1-0.7c0.2-0.3,0.4-0.8,0.1-1.5l-0.7-1.3c0.3,1.1-0.1,1.5-0.4,2.9c-0.3,1.4,0.2,3.3,2.4,3c2.3-0.3,1.9-3.5-0.5-6.7
	c-1.5-2.6,0.9-3.6,1.4-2.5c0.4,0.8,0,1.1-0.3,1.3c-0.3,0.2-0.4,0.1-0.6,0.1C-157,282.8-156.7,283-156.2,282.9"/>
<path class="st2" d="M-143.1,266.1c-0.4,0-0.8,0.2-1.2,0.6c-0.4,0.4-0.5,1-0.7,1.7c0.5-0.6,1.2-1.2,1.6-1.3c0.6-0.2,1.2-0.4,1.6-0.5
	c1-0.3,2-1.5,1.3-2.8c-1.2-2-4-1.6-5.3,2.6c-1.2,4.4-3.9,2.7-3.4,1.7c0.5-1,1.1-0.7,1.3-0.3c0.4-0.5,0.4-0.9,0-1.2
	c0.3,0,0.9-0.2,1.3-0.8l0.6-1.4c-0.7,0.9-1.3,0.9-2.6,1.4s-2.6,2.1-1,3.8c1.6,1.6,3.9-0.6,5.1-4.4c1.2-2.7,3.4-1.5,2.8-0.4
	c-0.4,0.8-0.9,0.6-1.2,0.5c-0.3-0.1-0.3-0.3-0.5-0.4C-143.5,265.4-143.5,265.7-143.1,266.1"/>
<path class="st2" d="M-128.9,259.5c0.3,0,0.6-0.3,0.6-0.6c0-0.3-0.3-0.6-0.6-0.6c-0.3,0-0.6,0.3-0.6,0.6
	C-129.5,259.2-129.3,259.5-128.9,259.5"/>
<path class="st2" d="M-107,297.9c-2.1,6.1-6.4,10.4-12.7,13.3c-4.6-6-15.3-5.6-19-0.1c-5.2-1.8-9.3-6.4-12-12.7l2.9-6.5h1.3l0.8-3.4
	l6.3-3.3l0.7,0l0.6-0.8l1.8-0.7l0.6,4.9l2.5,5.3l0.8,0.1l0.9-6.9c2.5-0.3,5.1-0.1,7.9,0.5l0.3,1.1l1.5,0.3l1.8,4.6l1.1,0.3l0.2-8.6
	l1.5,0.2l1.3,1.2l1.8,1.1l0.4,0.4l1,1.1l0.6,0.8l1.6,0.2L-107,297.9z"/>
<path class="st1" d="M-128.9,265.3c13.5,0,24.6,11,24.6,24.6c0,10.4-6.5,19.3-15.7,22.9c-1.6-3.1-5.5-5-9.2-5
	c-4.1,0-7.7,1.8-9.2,4.8c0,0,0,0,0,0c-8.8-3.7-15.1-12.5-15.1-22.7C-153.5,276.4-142.5,265.3-128.9,265.3z"/>
<path class="st3" d="M-129,304.1c0.4-1.2,1.2-1.1,2-0.3C-127.1,301.5-129.5,302.3-129,304.1"/>
<path class="st3" d="M-129.1,304.1c-0.4-1.2-1.2-1.1-2-0.3C-131,301.5-128.7,302.3-129.1,304.1"/>
<path class="st3" d="M-129.1,299.7c0.2,0.5,0.5,1,0.5,1.5c0,0.5-0.2,0.8-0.5,1.1c-0.3-0.3-0.5-0.6-0.5-1.1S-129.3,300.2-129.1,299.7
	"/>
<path class="st3" d="M-133.9,305.7C-133.8,305.7-133.8,305.7-133.9,305.7L-133.9,305.7c0.8,0,1.3-0.3,0.9-1c-0.2,0.1-0.6,0.4-0.9,0
	c-0.3-0.5,0.7-1.1,1.3-0.7c1.1,0.9,1.3,1.8,2.2,1.5c0.5-0.4,0.7-0.7,0.2-1c-0.3,0.4-0.6,0.5-0.8,0.2c-0.2-0.5,0.4-0.9,1-0.8
	c0.9,0.2,1.2,1.1,0.5,1.9c-0.7,0.8-1.6,0.5-2.6-0.1c-0.5,0.5-1.1,0.8-1.7,0.8l0,0c-0.6-0.1-1.2-0.3-1.4-0.8
	c-0.5,0.5-1.1,0.8-1.8,0.8l0-0.2l0,0.2c-0.6-0.1-1.2-0.3-1.4-0.8c-0.5,0.5-1.1,0.8-1.8,0.8l0,0c-0.6-0.1-1.2-0.3-1.5-0.8
	c-0.5,0.5-1.1,0.8-1.7,0.8v0c-0.6-0.1-1.2-0.3-1.5-0.8c-0.1,0.2-0.1,0.4-0.4,0.5c-0.4-0.2-0.8-0.5-1.1-0.9c0.8,0,1.1,0,0.7-0.7
	c-0.2,0.1-0.6,0.4-0.9,0c-0.3-0.5,0.7-1.1,1.3-0.7c1.1,0.9,1.1,1.7,1.9,1.6c0,0,0,0,0,0l0,0c0.8,0,1.3-0.3,0.8-1
	c-0.2,0.1-0.6,0.4-0.9,0c-0.3-0.5,0.8-1.1,1.3-0.7c1,0.9,1,1.6,2,1.6v0c0.8,0,1.3-0.2,0.9-1c-0.2,0.1-0.6,0.4-0.9,0
	c-0.3-0.5,0.7-1.1,1.3-0.7c1.1,0.8,1,1.8,2.1,1.7v0c0.8,0,1.2-0.4,0.8-1.1c-0.2,0.1-0.6,0.4-0.9,0c-0.3-0.5,0.7-1,1.3-0.7
	C-134.4,305-134.6,305.6-133.9,305.7"/>
<path class="st3" d="M-124.4,305.7C-124.4,305.7-124.4,305.7-124.4,305.7L-124.4,305.7c-0.8,0-1.3-0.3-0.9-1c0.2,0.1,0.6,0.4,0.9,0
	c0.3-0.5-0.7-1.1-1.3-0.7c-1.1,0.9-1.3,1.8-2.2,1.5c-0.5-0.4-0.7-0.7-0.2-1c0.3,0.4,0.6,0.5,0.8,0.2c0.2-0.5-0.4-0.9-1-0.8
	c-0.9,0.2-1.2,1.1-0.5,1.9c0.7,0.8,1.6,0.5,2.6-0.1c0.5,0.5,1.1,0.8,1.7,0.8v0c0.6-0.1,1.2-0.3,1.5-0.8c0.5,0.5,1.1,0.8,1.8,0.8
	l0-0.2l0,0.2c0.6-0.1,1.2-0.3,1.4-0.8c0.5,0.5,1.1,0.8,1.8,0.8l0,0c0.6-0.1,1.2-0.3,1.4-0.8c0.5,0.5,1.1,0.8,1.7,0.8v0
	c0.6-0.1,1.2-0.3,1.5-0.8c0.1,0.2,0.1,0.4,0.4,0.5c0.4-0.2,0.8-0.5,1.1-0.9c-0.8,0-1.1,0-0.7-0.7c0.2,0.1,0.6,0.4,0.9,0
	c0.3-0.5-0.7-1.1-1.3-0.7c-1.1,0.9-1.1,1.7-2,1.6c0,0,0,0,0,0v0c-0.8,0-1.3-0.3-0.8-1c0.2,0.1,0.6,0.4,0.9,0
	c0.3-0.5-0.8-1.1-1.3-0.7c-1,0.9-1,1.6-2,1.6v0c-0.8,0-1.3-0.2-0.9-1c0.2,0.1,0.6,0.4,0.9,0c0.3-0.5-0.7-1.1-1.3-0.7
	c-1.1,0.8-1,1.8-2.1,1.7v0c-0.8,0-1.2-0.4-0.8-1.1c0.2,0.1,0.6,0.4,0.9,0c0.3-0.5-0.7-1-1.3-0.7C-123.8,305-123.7,305.6-124.4,305.7
	"/>
<path class="st4" d="M-145,306.8c1,0.8,2.3,0.7,3.1-0.1c1.1,0.7,2.2,0.8,3.4,0.1c1.2,0.5,2.3,0.6,3.2,0c1.3,0.3,2,0.3,3.2,0"/>
<path class="st4" d="M-113.2,306.8c-1,0.8-2.3,0.7-3.2-0.1c-1.1,0.7-2.3,0.8-3.4,0.1c-1.2,0.5-2.3,0.6-3.3,0c-1.3,0.3-2.1,0.3-3.2,0
	"/>
<path class="st5" d="M-129,274.2c1.5,0,2.7-1.2,2.7-2.7c0-1.5-1.2-2.7-2.7-2.7s-2.7,1.2-2.7,2.7C-131.7,273-130.5,274.2-129,274.2"
	/>
<path class="st6" d="M-129,274.2c1.5,0,2.7-1.2,2.7-2.7c0-1.5-1.2-2.7-2.7-2.7s-2.7,1.2-2.7,2.7C-131.7,273-130.5,274.2-129,274.2z"
	/>
<path class="st7" d="M-124.5,267.2l-2.5,2.6"/>
<path class="st7" d="M-120.6,268.3l-5.9,2.5"/>
<path class="st7" d="M-126.9,266.8l-1,2.2"/>
<path class="st8" d="M-129,266.6v2.3"/>
<path class="st9" d="M-126.6,272.5l19.6,9.5"/>
<path class="st9" d="M-127.3,273.6l9.8,11"/>
<path class="st9" d="M-128.3,274.1l4.9,12.7"/>
<path class="st9" d="M-129,274.1v12"/>
<path class="st7" d="M-133.6,267.2l2.5,2.6"/>
<path class="st7" d="M-137.5,268.3l5.9,2.5"/>
<path class="st7" d="M-131.2,266.8l1,2.2"/>
<path class="st9" d="M-131.5,272.5l-19.6,9.5"/>
<path class="st9" d="M-130.8,273.6l-9.8,11"/>
<path class="st9" d="M-129.8,274.1l-4.9,12.7"/>
<path class="st7" d="M-143.4,271.5h11.8"/>
<path class="st7" d="M-126.5,271.5h11.8"/>
<path class="st1" d="M-128.9,266.5c13.1,0.1,23.4,11.3,23.3,22.8c-0.1,11.5-6,17.9-14.1,22c-1.5-2.9-6-4.5-9.5-4.5
	c-3.8,0-8.1,1.5-9.5,4.3c-5.6-1.5-14-10.8-13.7-21.2C-152.1,276.7-142,266.5-128.9,266.5z"/>
<path class="st10" d="M-106.7,296.6l-3-6.9l-1.8-0.3l-1.7-2.3l-1.8-0.8l-1.4-1.4l-3-0.3l-0.1,7.6c-0.6-1.2-1.1-2.4-1.5-3.8
	c-0.5-0.1-1.1-0.3-1.6-0.4l-0.2-1c-2.8-0.8-5.7-1.3-9.1-0.9c-0.8,1.9-0.8,4.2-1.1,6.2l-1.9-3.8l-0.4-6c-1.6,0.3-3,0.7-3.7,1.6
	l-1.6,0.8l-5.5,2.8l-1,3.4h-1.2l-2.7,6.2"/>
<path class="st11" d="M-128.9,404.8c19.2,0,34.8-15.6,34.8-34.8c0-19.2-15.6-34.8-34.8-34.8s-34.8,15.6-34.8,34.8
	C-163.8,389.1-148.1,404.8-128.9,404.8z"/>
<path class="st11" d="M-128.9,403.4c18.5,0,33.5-15.1,33.5-33.5c0-18.5-15-33.5-33.5-33.5s-33.5,15.1-33.5,33.5
	S-147.4,403.4-128.9,403.4z"/>
<path class="st3" d="M-125.4,400.5l-0.6,0h-0.5l-1.2,0.1l-0.3,0l-0.3,0l-0.6,0c-0.2,0-0.4,0-0.6,0c-0.2,0-0.4-0.1-0.5-0.1
	c-0.3-0.1-0.5-0.3-0.5-0.5c0-0.2,0.1-0.3,0.3-0.4c0.1-0.1,0.2-0.1,0.2-0.1c0,0,0.1-0.1,0.1-0.2l0-0.1l0-0.1l0-0.3v-0.3l0-0.8l0-0.8
	l0-0.3l0-0.3l0-0.4c0-0.1,0-0.2,0-0.3c0-0.1,0-0.2-0.1-0.2c0,0-0.1-0.1-0.2-0.1c-0.1-0.1-0.2-0.1-0.2-0.1c-0.1,0-0.1-0.1-0.1-0.2
	c0-0.3,0.2-0.5,0.7-0.6c0.4-0.1,0.9-0.2,1.3-0.2c0.2,0,0.3,0,0.5,0c0.2,0,0.3,0,0.4,0.1c0.3,0.1,0.4,0.2,0.4,0.5
	c0,0.1,0,0.2-0.1,0.3c-0.1,0.1-0.1,0.1-0.3,0.2c-0.1,0.1-0.1,0.1-0.2,0.2c0,0,0,0.1,0,0.1c0,0.1,0,0.1,0,0.2v2.8
	c0,0.2,0,0.4,0.1,0.6c0,0.1,0.1,0.2,0.2,0.3c0.1,0.1,0.2,0.1,0.4,0.1c0.2,0,0.4,0,0.4-0.1c0.1-0.1,0.1-0.2,0.2-0.3
	c0-0.2,0-0.5,0-0.9v-1.9c0-0.4,0-0.7,0-0.8c0-0.1-0.1-0.2-0.1-0.2l-0.1,0l-0.1-0.1l-0.1-0.1c0,0-0.1-0.1-0.1-0.2c0-0.1,0-0.2,0-0.2
	c0-0.1,0.1-0.1,0.2-0.2c0.1-0.1,0.3-0.1,0.5-0.2c0.2,0,0.5-0.1,0.9-0.1c1,0,1.5,0.2,1.5,0.6c0,0.1,0,0.2-0.1,0.3
	c-0.1,0.1-0.1,0.1-0.3,0.2c-0.1,0-0.1,0.1-0.1,0.2c0,0.1,0,0.2,0,0.4v2.8c0,0.2,0,0.4,0.1,0.6c0,0.1,0.1,0.2,0.2,0.3
	c0.1,0.1,0.2,0.1,0.4,0.1c0.2,0,0.3,0,0.4-0.1c0.1-0.1,0.1-0.2,0.2-0.4l0-0.4l0-0.5v-1.9c0-0.4,0-0.7,0-0.8c0-0.1-0.1-0.2-0.1-0.2
	c-0.1-0.1-0.2-0.1-0.3-0.2c-0.1,0-0.1-0.1-0.1-0.2c0-0.1,0-0.2,0.1-0.2c0-0.1,0.1-0.1,0.2-0.2c0.1-0.1,0.3-0.1,0.5-0.2
	c0.2,0,0.5-0.1,0.9-0.1c1,0,1.6,0.2,1.6,0.6c0,0.2-0.1,0.3-0.3,0.4c-0.1,0-0.2,0.1-0.2,0.1c0,0.1-0.1,0.2-0.1,0.4l0,0.4l0,0.6v2.3
	c0,0.1,0,0.2,0.1,0.3c0,0.1,0.1,0.1,0.2,0.2c0.1,0.1,0.2,0.1,0.2,0.2c0,0.1,0.1,0.1,0.1,0.2c0,0.2-0.1,0.3-0.3,0.5
	c-0.2,0.1-0.7,0.2-1.4,0.2h-0.4l-0.4,0l-0.9,0l-0.8,0L-125.4,400.5z"/>
<path class="st3" d="M-137.8,395.7c0.2-0.4,0.5-0.8,0.8-1.1c0.3-0.3,0.7-0.6,1.1-0.7c0.4-0.1,0.9-0.2,1.4-0.2c0.2,0,0.5,0,0.7,0.1
	c0.2,0.1,0.5,0.1,0.7,0.2c0.6,0.2,1,0.6,1.3,1c0.3,0.4,0.6,0.8,0.7,1.3c0.1,0.5,0.2,0.9,0.1,1.3c0,0.4-0.1,0.8-0.2,1.1
	c-0.2,0.5-0.5,0.8-0.8,1.1c-0.3,0.3-0.7,0.5-1.2,0.7c-0.2,0.1-0.4,0.1-0.7,0.1c-0.2,0-0.4,0-0.7,0c-0.5,0-0.9-0.1-1.4-0.3
	c-0.5-0.2-0.8-0.5-1.2-0.8c-0.3-0.3-0.6-0.7-0.8-1.1c-0.2-0.4-0.3-0.9-0.3-1.3C-138.1,396.6-138,396.1-137.8,395.7 M-134.1,395.1
	c-0.2-0.1-0.4-0.1-0.7,0.1c-0.2,0.1-0.4,0.3-0.5,0.6c-0.1,0.2-0.2,0.5-0.2,0.8c-0.1,0.4-0.1,0.7-0.1,1.1c0,0.4,0,0.7,0.1,1
	c0.1,0.3,0.2,0.5,0.5,0.6c0.2,0.1,0.5,0.1,0.7,0c0.2-0.1,0.4-0.3,0.5-0.6c0.1-0.3,0.2-0.7,0.3-1.2c0.1-0.5,0.1-1,0-1.4
	C-133.5,395.5-133.7,395.2-134.1,395.1"/>
<path class="st3" d="M-101.9,377.7c0.3-0.3,0.4-0.7,0.3-1.3c0-0.6-0.5-1-0.8-1.6c0.1,0.8,0.1,1.7-0.1,2.1c-0.3,0.6-0.5,1.1-0.7,1.6
	c-0.5,0.9-0.2,2.5,1.2,2.8c2.3,0.4,3.9-1.9,1.6-5.7c-2.4-3.8,0.6-4.7,1-3.7c0.4,1-0.2,1.2-0.6,1.2c0.1,0.6,0.4,0.9,0.9,0.8
	c-0.2,0.3-0.5,0.8-0.3,1.5l0.6,1.4c-0.2-1.1,0.2-1.5,0.6-2.9c0.4-1.4,0.1-3.3-2.1-3.3c-2.3,0.1-2.2,3.3-0.1,6.7
	c1.2,2.7-1.2,3.5-1.6,2.4c-0.3-0.8,0.1-1.1,0.4-1.2c0.3-0.1,0.4,0,0.6-0.1C-101.1,377.8-101.3,377.6-101.9,377.7"/>
<path class="st3" d="M-115.3,394.4c0.4,0,0.8-0.2,1.2-0.6c0.4-0.4,0.4-1.1,0.6-1.7c-0.5,0.6-1.2,1.2-1.6,1.4
	c-0.6,0.2-1.2,0.4-1.6,0.6c-1,0.3-2,1.5-1.2,2.8c1.3,1.9,4,1.5,5.3-2.8c1.1-4.4,3.8-2.8,3.3-1.8c-0.4,1-1.1,0.7-1.3,0.3
	c-0.4,0.5-0.4,0.9,0.1,1.2c-0.3,0.1-0.9,0.2-1.3,0.8l-0.6,1.4c0.7-0.9,1.3-0.9,2.6-1.5c1.3-0.6,2.5-2.2,0.9-3.8
	c-1.6-1.6-3.9,0.7-4.9,4.5c-1.1,2.7-3.4,1.5-2.8,0.4c0.4-0.8,0.9-0.7,1.2-0.5c0.3,0.1,0.3,0.3,0.5,0.4
	C-114.8,395.1-114.9,394.8-115.3,394.4"/>
<path class="st3" d="M-104.2,356.5c0-0.4-0.3-0.7-0.8-1.1c-0.5-0.3-1.1-0.3-1.7-0.4c0.6,0.4,1.3,1,1.5,1.4c0.3,0.6,0.5,1.1,0.8,1.5
	c0.4,1,1.7,1.8,2.9,0.9c1.8-1.5,1.1-4.2-3.3-4.9c-4.5-0.6-3.2-3.4-2.2-3.1c1,0.3,0.8,1,0.5,1.2c0.5,0.3,0.9,0.3,1.2-0.2
	c0.1,0.3,0.3,0.9,1,1.2l1.4,0.4c-1-0.6-1-1.2-1.8-2.4c-0.8-1.2-2.4-2.3-3.9-0.5c-1.4,1.8,1.1,3.8,5,4.4c2.9,0.8,1.9,3.2,0.7,2.8
	c-0.9-0.3-0.7-0.8-0.7-1.1c0.1-0.3,0.2-0.3,0.3-0.5C-103.6,356-103.9,356.1-104.2,356.5"/>
<path class="st3" d="M-121.2,342.9c-0.3-0.3-0.7-0.3-1.3-0.2c-0.6,0.1-1,0.5-1.6,0.9c0.8-0.1,1.7-0.2,2.1-0.1
	c0.6,0.2,1.2,0.4,1.6,0.6c1,0.4,2.5,0.1,2.7-1.4c0.2-2.3-2.1-3.7-5.8-1.2c-3.6,2.7-4.7-0.2-3.7-0.7c1-0.5,1.3,0.1,1.2,0.5
	c0.6-0.1,0.9-0.4,0.7-1c0.3,0.2,0.8,0.4,1.5,0.2l1.3-0.7c-1.1,0.3-1.5-0.1-2.9-0.5c-1.4-0.3-3.3,0.1-3.1,2.3
	c0.2,2.3,3.5,1.9,6.7-0.3c2.6-1.4,3.6,0.9,2.5,1.5c-0.8,0.4-1.1-0.1-1.2-0.4c-0.2-0.3-0.1-0.4-0.1-0.6
	C-121.1,342.1-121.3,342.4-121.2,342.9"/>
<path class="st3" d="M-104.6,384.1c0,0.4-0.3,0.7-0.8,1.1c-0.5,0.3-1.1,0.3-1.7,0.4c0.6-0.4,1.3-1,1.5-1.4c0.3-0.6,0.5-1.1,0.8-1.5
	c0.4-1,1.7-1.8,2.9-0.9c1.8,1.5,1,4.2-3.4,4.9c-4.5,0.6-3.2,3.4-2.2,3.1c1-0.3,0.8-1,0.5-1.2c0.5-0.3,0.9-0.3,1.2,0.2
	c0.1-0.3,0.3-0.9,1-1.2l1.4-0.4c-1,0.5-1,1.2-1.8,2.4c-0.8,1.2-2.5,2.2-3.9,0.4c-1.4-1.8,1.2-3.8,5-4.4c2.9-0.8,1.9-3.1,0.8-2.8
	c-0.9,0.3-0.8,0.8-0.7,1.1c0.1,0.3,0.2,0.3,0.3,0.5C-103.9,384.6-104.3,384.5-104.6,384.1"/>
<path class="st3" d="M-101.7,362.9c0.2,0.3,0.3,0.7,0.2,1.3c-0.1,0.6-0.6,1-0.9,1.5c0.1-0.8,0.2-1.7,0.1-2.1
	c-0.2-0.6-0.4-1.2-0.5-1.6c-0.4-1,0-2.5,1.4-2.7c2.3-0.2,3.7,2.2,1.1,5.9c-2.8,3.6,0.1,4.7,0.6,3.8c0.5-1-0.1-1.3-0.5-1.2
	c0.2-0.6,0.4-0.9,1-0.7c-0.2-0.3-0.4-0.8-0.1-1.5l0.7-1.3c-0.3,1.1,0.1,1.5,0.4,2.9c0.3,1.4-0.2,3.3-2.4,3c-2.3-0.3-1.9-3.5,0.5-6.7
	c1.5-2.6-0.9-3.6-1.4-2.5c-0.4,0.8,0,1.1,0.3,1.3c0.3,0.2,0.4,0.1,0.6,0.1C-100.9,362.8-101.1,363-101.7,362.9"/>
<path class="st3" d="M-114.8,346.1c0.4,0,0.8,0.2,1.2,0.6c0.4,0.4,0.5,1,0.7,1.7c-0.5-0.6-1.2-1.2-1.6-1.3c-0.6-0.2-1.2-0.4-1.6-0.6
	c-1-0.3-2-1.5-1.3-2.8c1.2-2,4-1.6,5.3,2.6c1.2,4.4,3.9,2.7,3.4,1.7c-0.5-1-1.1-0.7-1.3-0.3c-0.4-0.5-0.4-0.9,0-1.2
	c-0.3,0-0.9-0.2-1.3-0.8l-0.6-1.4c0.7,0.9,1.3,0.9,2.6,1.4s2.6,2.1,1,3.8c-1.6,1.6-3.9-0.6-5.1-4.4c-1.2-2.7-3.4-1.5-2.8-0.4
	c0.4,0.8,0.9,0.6,1.2,0.5c0.3-0.1,0.3-0.3,0.5-0.4C-114.3,345.4-114.4,345.7-114.8,346.1"/>
<path class="st3" d="M-156,377.7c-0.3-0.3-0.4-0.7-0.3-1.3c0-0.6,0.5-1,0.8-1.6c-0.1,0.8-0.1,1.7,0.1,2.1c0.3,0.6,0.5,1.1,0.7,1.6
	c0.5,0.9,0.2,2.5-1.2,2.8c-2.3,0.4-3.9-1.9-1.6-5.7c2.4-3.8-0.6-4.7-1-3.7c-0.4,1,0.2,1.2,0.6,1.2c-0.1,0.6-0.4,0.9-0.9,0.8
	c0.2,0.3,0.5,0.8,0.3,1.5l-0.6,1.4c0.2-1.1-0.2-1.5-0.6-2.9c-0.4-1.4-0.1-3.3,2.1-3.3c2.3,0.1,2.2,3.3,0.1,6.7
	c-1.2,2.7,1.2,3.5,1.6,2.4c0.3-0.8-0.1-1.1-0.4-1.2c-0.3-0.1-0.4,0-0.6-0.1C-156.8,377.8-156.5,377.6-156,377.7"/>
<path class="st3" d="M-142.6,394.4c-0.4,0-0.8-0.2-1.2-0.6c-0.4-0.4-0.4-1.1-0.6-1.7c0.5,0.6,1.2,1.2,1.6,1.4
	c0.6,0.2,1.2,0.4,1.6,0.6c1,0.3,2,1.5,1.2,2.8c-1.3,1.9-4,1.5-5.3-2.8c-1.1-4.4-3.8-2.8-3.3-1.8c0.4,1,1.1,0.7,1.3,0.3
	c0.4,0.5,0.4,0.9-0.1,1.2c0.3,0.1,0.9,0.2,1.3,0.8l0.6,1.4c-0.7-0.9-1.3-0.9-2.5-1.5c-1.3-0.6-2.5-2.2-0.9-3.8
	c1.6-1.6,3.9,0.7,4.9,4.5c1.1,2.7,3.4,1.5,2.8,0.4c-0.4-0.8-0.9-0.7-1.2-0.5c-0.3,0.1-0.3,0.3-0.5,0.4
	C-143.1,395.1-143,394.8-142.6,394.4"/>
<path class="st3" d="M-153.7,356.5c0-0.4,0.3-0.7,0.8-1.1c0.5-0.3,1.1-0.3,1.7-0.4c-0.6,0.4-1.3,1-1.5,1.4c-0.3,0.6-0.5,1.1-0.8,1.5
	c-0.4,1-1.7,1.8-2.9,0.9c-1.8-1.5-1.1-4.2,3.3-4.9c4.5-0.6,3.2-3.4,2.2-3.1c-1,0.3-0.8,1-0.5,1.2c-0.5,0.3-0.9,0.3-1.2-0.2
	c-0.1,0.3-0.3,0.9-1,1.2l-1.4,0.4c1-0.6,1-1.2,1.8-2.4c0.8-1.2,2.4-2.3,3.9-0.5c1.4,1.8-1.1,3.8-5,4.4c-2.9,0.8-1.9,3.2-0.7,2.8
	c0.9-0.3,0.7-0.8,0.7-1.1c-0.1-0.3-0.2-0.3-0.3-0.5C-154.3,356-154,356.1-153.7,356.5"/>
<path class="st3" d="M-136.7,342.9c0.3-0.3,0.7-0.3,1.3-0.2c0.6,0.1,1,0.5,1.6,0.9c-0.8-0.1-1.7-0.2-2.1-0.1
	c-0.6,0.2-1.2,0.4-1.6,0.6c-1,0.4-2.5,0.1-2.7-1.4c-0.2-2.3,2.1-3.7,5.8-1.2c3.6,2.7,4.7-0.2,3.7-0.7c-1-0.5-1.3,0.1-1.2,0.5
	c-0.6-0.1-0.9-0.4-0.7-1c-0.3,0.2-0.8,0.4-1.5,0.2l-1.3-0.7c1.1,0.3,1.5-0.1,2.9-0.5c1.4-0.3,3.3,0.1,3.1,2.3
	c-0.2,2.3-3.5,1.9-6.7-0.3c-2.6-1.4-3.6,0.9-2.5,1.5c0.8,0.4,1.1-0.1,1.3-0.4c0.2-0.3,0.1-0.4,0.1-0.6
	C-136.8,342.1-136.6,342.4-136.7,342.9"/>
<path class="st3" d="M-153.3,384.1c0,0.4,0.3,0.7,0.8,1.1c0.5,0.3,1.1,0.3,1.8,0.4c-0.6-0.4-1.3-1-1.5-1.4c-0.3-0.6-0.5-1.1-0.8-1.5
	c-0.4-1-1.7-1.8-2.9-0.9c-1.8,1.5-1,4.2,3.4,4.9c4.5,0.6,3.2,3.4,2.2,3.1c-1-0.3-0.8-1-0.5-1.2c-0.5-0.3-0.9-0.3-1.2,0.2
	c-0.1-0.3-0.3-0.9-1-1.2l-1.4-0.4c1,0.5,1,1.2,1.8,2.4c0.8,1.2,2.5,2.2,3.9,0.4c1.4-1.8-1.2-3.8-5-4.4c-2.9-0.8-1.9-3.1-0.8-2.8
	c0.9,0.3,0.8,0.8,0.7,1.1c-0.1,0.3-0.2,0.3-0.3,0.5C-153.9,384.6-153.6,384.5-153.3,384.1"/>
<path class="st3" d="M-156.2,362.9c-0.2,0.3-0.3,0.7-0.2,1.3c0.1,0.6,0.6,1,0.9,1.5c-0.1-0.8-0.2-1.7-0.1-2.1
	c0.2-0.6,0.4-1.2,0.5-1.6c0.4-1,0-2.5-1.4-2.7c-2.3-0.2-3.7,2.2-1.1,5.9c2.8,3.6-0.1,4.7-0.6,3.8c-0.5-1,0.1-1.3,0.5-1.2
	c-0.2-0.6-0.4-0.9-1-0.7c0.2-0.3,0.4-0.8,0.1-1.5l-0.7-1.3c0.3,1.1-0.1,1.5-0.4,2.9c-0.3,1.4,0.2,3.3,2.4,3c2.3-0.3,1.9-3.5-0.5-6.7
	c-1.5-2.6,0.9-3.6,1.4-2.5c0.4,0.8,0,1.1-0.3,1.3c-0.3,0.2-0.4,0.1-0.6,0.1C-157,362.8-156.7,363-156.2,362.9"/>
<path class="st3" d="M-143.1,346.1c-0.4,0-0.8,0.2-1.2,0.6c-0.4,0.4-0.5,1-0.7,1.7c0.5-0.6,1.2-1.2,1.6-1.3c0.6-0.2,1.2-0.4,1.6-0.6
	c1-0.3,2-1.5,1.3-2.8c-1.2-2-4-1.6-5.3,2.6c-1.2,4.4-3.9,2.7-3.4,1.7c0.5-1,1.1-0.7,1.3-0.3c0.4-0.5,0.4-0.9,0-1.2
	c0.3,0,0.9-0.2,1.3-0.8l0.6-1.4c-0.7,0.9-1.3,0.9-2.6,1.4s-2.6,2.1-1,3.8c1.6,1.6,3.9-0.6,5.1-4.4c1.2-2.7,3.4-1.5,2.8-0.4
	c-0.4,0.8-0.9,0.6-1.2,0.5c-0.3-0.1-0.3-0.3-0.5-0.4C-143.5,345.4-143.5,345.7-143.1,346.1"/>
<path class="st3" d="M-128.9,339.5c0.3,0,0.6-0.3,0.6-0.6c0-0.3-0.3-0.6-0.6-0.6c-0.3,0-0.6,0.3-0.6,0.6
	C-129.5,339.2-129.3,339.5-128.9,339.5"/>
<path class="st11" d="M-128.9,345.3c13.5,0,24.6,11,24.6,24.6c0,10.4-6.5,19.3-15.7,22.9c-1.6-3.1-5.5-5-9.2-5
	c-4.1,0-7.7,1.8-9.2,4.8c0,0,0,0,0,0c-8.8-3.7-15.1-12.5-15.1-22.7C-153.5,356.4-142.5,345.3-128.9,345.3z"/>
<path class="st3" d="M-110.3,370.4l-1.6-0.2l-0.6-0.8l-1-1.1l-0.3-0.4l-1.8-1.1l-1.3-1.2l-1.5-0.2l-0.2,8.6l-1.1-0.3l-1.8-4.6
	l-1.5-0.3l-0.3-1.1c-2.7-0.6-5.4-0.8-7.9-0.5l-0.9,6.9l-0.8-0.1l-2.5-5.3l-0.6-4.9l-1.8,0.7l-0.6,0.8l-0.7,0l-6.3,3.3l-0.8,3.4h-1.3
	l-2.9,6.5c2.7,6.4,6.8,11,12,12.7c3.7-5.5,14.4-5.9,19,0.1c6.3-2.9,10.7-7.2,12.7-13.3L-110.3,370.4z M-127.1,383.7
	c-0.8-0.8-1.6-0.9-2,0.3C-129.5,382.3-127.1,381.5-127.1,383.7z M-129.1,379.7c0.2,0.5,0.5,1,0.5,1.5c0,0.5-0.2,0.8-0.5,1.1
	c-0.3-0.3-0.5-0.6-0.5-1.1S-129.3,380.2-129.1,379.7z M-129.1,384.1c-0.4-1.2-1.2-1.1-2-0.3C-131,381.5-128.7,382.3-129.1,384.1z
	 M-129.5,386c-0.7,0.8-1.6,0.5-2.6-0.1c-0.5,0.5-1.1,0.8-1.7,0.8l0,0c-0.6-0.1-1.2-0.3-1.4-0.8c-0.5,0.5-1.1,0.8-1.8,0.8l0-0.2
	l0,0.2c-0.6-0.1-1.2-0.3-1.4-0.8c-0.5,0.5-1.1,0.8-1.8,0.8l0,0c-0.6-0.1-1.2-0.3-1.5-0.8c-0.5,0.5-1.1,0.8-1.7,0.8v0
	c-0.6-0.1-1.2-0.3-1.5-0.8c-0.1,0.2-0.1,0.4-0.4,0.5c-0.4-0.2-0.8-0.5-1.1-0.9c0.8,0,1.1,0,0.7-0.7c-0.2,0.1-0.6,0.4-0.9,0
	c-0.3-0.5,0.7-1.1,1.3-0.7c1.1,0.9,1.1,1.7,1.9,1.6c0,0,0,0,0,0l0,0c0.8,0,1.3-0.3,0.8-1c-0.2,0.1-0.6,0.4-0.9,0
	c-0.3-0.5,0.8-1.1,1.3-0.7c1,0.9,1,1.6,2,1.6v0c0.8,0,1.3-0.2,0.9-1c-0.2,0.1-0.6,0.4-0.9,0c-0.3-0.5,0.7-1.1,1.3-0.7
	c1.1,0.8,1,1.8,2.1,1.7v0c0.8,0,1.2-0.4,0.8-1.1c-0.2,0.1-0.6,0.4-0.9,0c-0.3-0.5,0.7-1,1.3-0.7c1.4,0.9,1.2,1.5,1.9,1.6
	c0,0,0,0,0,0v0c0.8,0,1.3-0.3,0.8-1c-0.2,0.1-0.6,0.4-0.9,0c-0.3-0.5,0.7-1.1,1.3-0.7c1.1,0.9,1.3,1.8,2.2,1.5
	c0.5-0.4,0.7-0.7,0.2-1c-0.3,0.4-0.6,0.5-0.8,0.2c-0.2-0.5,0.4-0.9,1-0.8C-129.1,384.3-128.8,385.2-129.5,386z M-111.5,384.8
	c-0.3,0.3-0.7,0.1-0.9,0c-0.5,0.7-0.2,0.7,0.7,0.7c-0.3,0.4-0.6,0.7-1.1,0.9c-0.3-0.1-0.3-0.2-0.4-0.5c-0.3,0.5-0.8,0.7-1.4,0.8v0
	c-0.6,0.1-1.2-0.2-1.7-0.8c-0.3,0.5-0.8,0.7-1.4,0.8l0,0c-0.6,0.1-1.2-0.2-1.8-0.8c-0.3,0.5-0.8,0.7-1.5,0.8l0-0.2l0,0.2
	c-0.6,0.1-1.2-0.2-1.8-0.8c-0.3,0.5-0.8,0.7-1.5,0.8v0c-0.6,0.1-1.2-0.2-1.7-0.8c-1.1,0.6-1.9,0.8-2.6,0.1c-0.7-0.8-0.4-1.7,0.5-1.9
	c0.6-0.1,1.2,0.3,1,0.8c-0.3,0.3-0.6,0.2-0.8-0.2c-0.5,0.3-0.3,0.7,0.2,1c0.9,0.2,1.1-0.7,2.2-1.5c0.5-0.4,1.5,0.1,1.3,0.7
	c-0.3,0.3-0.7,0.1-0.9,0c-0.4,0.7,0,1,0.8,1v0c0,0,0,0,0,0c0.7-0.1,0.6-0.7,1.9-1.6c0.6-0.4,1.5,0.1,1.3,0.7c-0.3,0.3-0.7,0.1-0.9,0
	c-0.5,0.7-0.1,1.1,0.8,1.1v0c1.1,0,1-0.9,2.1-1.7c0.5-0.4,1.5,0.1,1.3,0.7c-0.3,0.3-0.7,0.1-0.9,0c-0.5,0.7,0,1,0.9,1v0
	c1,0,1-0.7,2-1.6c0.5-0.4,1.5,0.1,1.3,0.7c-0.3,0.3-0.7,0.1-0.9,0c-0.4,0.7,0,1,0.8,1v0c0,0,0,0,0,0c0.9,0.1,0.9-0.7,1.9-1.6
	C-112.3,383.7-111.3,384.3-111.5,384.8z"/>
<path class="st6" d="M-129,354.2c1.5,0,2.7-1.2,2.7-2.7c0-1.5-1.2-2.7-2.7-2.7s-2.7,1.2-2.7,2.7C-131.7,353-130.5,354.2-129,354.2z"
	/>
<path class="st3" d="M-129,354.2c1.5,0,2.7-1.2,2.7-2.7c0-1.5-1.2-2.7-2.7-2.7s-2.7,1.2-2.7,2.7C-131.7,353-130.5,354.2-129,354.2"
	/>
<path class="st3" d="M-124.5,347.2l-2.5,2.6"/>
<path class="st3" d="M-120.6,348.3l-5.9,2.5"/>
<path class="st3" d="M-126.9,346.8l-1,2.2"/>
<path class="st3" d="M-126.6,352.5l19.6,9.5"/>
<path class="st3" d="M-127.3,353.6l9.8,11"/>
<path class="st3" d="M-128.3,354.1l4.9,12.7"/>
<path class="st3" d="M-133.6,347.2l2.5,2.6"/>
<path class="st3" d="M-137.5,348.3l5.9,2.5"/>
<path class="st3" d="M-131.2,346.8l1,2.2"/>
<path class="st3" d="M-131.5,352.5l-19.6,9.5"/>
<path class="st3" d="M-130.8,353.6l-9.8,11"/>
<path class="st3" d="M-129.8,354.1l-4.9,12.7"/>
<path class="st12" d="M-128.9,346.5c13.1,0.1,23.4,11.3,23.3,22.8c-0.1,11.5-6,17.9-14.1,22c-1.5-2.9-6-4.5-9.5-4.5
	c-3.8,0-8.1,1.5-9.5,4.3c-5.6-1.5-14-10.8-13.7-21.2C-152.1,356.7-142,346.5-128.9,346.5z"/>
<path class="st13" d="M-106.7,376.6l-3-6.9l-1.8-0.3l-1.7-2.3l-1.8-0.8l-1.4-1.4l-3-0.3l-0.1,7.6c-0.6-1.2-1.1-2.4-1.5-3.8
	c-0.5-0.1-1.1-0.3-1.6-0.4l-0.2-1c-2.8-0.8-5.7-1.3-9.1-0.9c-0.8,1.9-0.8,4.2-1.1,6.2l-1.9-3.8l-0.4-6c-1.6,0.3-3,0.7-3.7,1.6
	l-1.6,0.8l-5.5,2.8l-1,3.4h-1.2l-2.7,6.2"/>
<path class="st2" d="M-69.3,299.9c0.3-0.2,0.8-0.2,1.3-0.1c0.6,0.1,0.9,0.7,1.4,1.1c-0.7-0.2-1.6-0.4-2-0.3
	c-0.6,0.1-1.2,0.3-1.7,0.3c-1,0.3-2.5-0.3-2.5-1.7c0.1-2.3,2.6-3.4,5.9-0.4c3.2,3.2,4.7,0.4,3.8-0.2c-0.9-0.6-1.3,0-1.3,0.4
	c-0.6-0.2-0.8-0.5-0.6-1c-0.3,0.1-0.9,0.3-1.5,0l-1.2-0.9c1,0.4,1.5,0.1,3-0.1c1.4-0.1,3.3,0.5,2.8,2.8c-0.5,2.2-3.7,1.4-6.6-1.2
	c-2.4-1.8-3.7,0.4-2.6,1.1c0.8,0.5,1.1,0.1,1.3-0.2c0.2-0.3,0.1-0.4,0.2-0.5C-69.3,299.1-69.1,299.4-69.3,299.9"/>
</svg>
